aaa.ufo
<glyph name="pingguo" format="2">
  <advance width="1024"/>
  <unicode hex="E60B"/>
  <outline>
    <contour>
      <point x="771" y="348" type="line"/>
      <point x="771" y="451"/>
      <point x="814" y="498" type="qcurve"/>
      <point x="836" y="524"/>
      <point x="870" y="531" type="qcurve"/>
      <point x="874" y="532" type="line"/>
      <point x="838" y="586"/>
      <point x="778" y="611" type="qcurve"/>
      <point x="739" y="627"/>
      <point x="700" y="628" type="qcurve"/>
      <point x="670" y="631"/>
      <point x="634" y="622" type="qcurve"/>
      <point x="613" y="617"/>
      <point x="575" y="602" type="qcurve"/>
      <point x="553" y="593"/>
      <point x="544" y="590" type="qcurve"/>
      <point x="528" y="586"/>
      <point x="507" y="586"/>
      <point x="491" y="591" type="qcurve"/>
      <point x="481" y="594"/>
      <point x="459" y="603" type="qcurve"/>
      <point x="429" y="615"/>
      <point x="412" y="620" type="qcurve"/>
      <point x="384" y="628"/>
      <point x="361" y="627" type="qcurve"/>
      <point x="301" y="626"/>
      <point x="196" y="563"/>
      <point x="165" y="508" type="qcurve"/>
      <point x="125" y="440"/>
      <point x="125" y="346" type="qcurve"/>
      <point x="125" y="263"/>
      <point x="154" y="174" type="qcurve"/>
      <point x="181" y="92"/>
      <point x="225" y="29" type="qcurve"/>
      <point x="265" y="-28"/>
      <point x="291" y="-53" type="qcurve"/>
      <point x="333" y="-92"/>
      <point x="375" y="-91" type="qcurve"/>
      <point x="394" y="-90"/>
      <point x="412" y="-85" type="qcurve"/>
      <point x="423" y="-81"/>
      <point x="443" y="-73" type="qcurve"/>
      <point x="467" y="-62"/>
      <point x="481" y="-58" type="qcurve"/>
      <point x="505" y="-52"/>
      <point x="555" y="-52"/>
      <point x="578" y="-58" type="qcurve"/>
      <point x="591" y="-62"/>
      <point x="635" y="-81"/>
      <point x="647" y="-84" type="qcurve"/>
      <point x="667" y="-90"/>
      <point x="688" y="-90" type="qcurve"/>
      <point x="718" y="-89"/>
      <point x="745" y="-72" type="qcurve"/>
      <point x="768" y="-57"/>
      <point x="792" y="-29" type="qcurve"/>
      <point x="808" y="-10"/>
      <point x="833" y="27" type="qcurve"/>
      <point x="861" y="68"/>
      <point x="881" y="114" type="qcurve"/>
      <point x="892" y="138"/>
      <point x="899" y="158" type="qcurve"/>
      <point x="899" y="159" type="line"/>
      <point x="894" y="162"/>
      <point x="878" y="172" type="qcurve"/>
      <point x="855" y="189"/>
      <point x="835" y="210" type="qcurve"/>
      <point x="807" y="238"/>
      <point x="791" y="269" type="qcurve"/>
      <point x="772" y="308"/>
      <point x="771" y="348" type="qcurve"/>
    </contour>
    <contour>
      <point x="512" y="622" type="qcurve"/>
      <point x="512" y="687"/>
      <point x="576" y="796"/>
      <point x="685" y="860"/>
      <point x="750" y="860" type="qcurve"/>
      <point x="750" y="795"/>
      <point x="686" y="686"/>
      <point x="576" y="622"/>
    </contour>
  </outline>
</glyph>
<glyph name="qijixiulogo" format="2">
  <advance width="6712"/>
  <unicode hex="E60C"/>
  <outline>
    <contour>
      <point x="732" y="515" type="line"/>
      <point x="688" y="505" type="line"/>
      <point x="698" y="479" type="line"/>
    </contour>
    <contour>
      <point x="779" y="797" type="qcurve"/>
      <point x="704" y="797"/>
      <point x="568" y="733"/>
      <point x="471" y="620"/>
      <point x="430" y="474"/>
      <point x="455" y="327"/>
      <point x="538" y="203"/>
      <point x="603" y="164" type="qcurve"/>
      <point x="811" y="279" type="line"/>
      <point x="884" y="475" type="line"/>
      <point x="891" y="487"/>
      <point x="888" y="501" type="qcurve"/>
      <point x="884" y="518"/>
      <point x="857" y="539"/>
      <point x="839" y="537" type="qcurve"/>
      <point x="833" y="537" type="line"/>
      <point x="833" y="536" type="line"/>
      <point x="766" y="520" type="line"/>
      <point x="706" y="460" type="line"/>
      <point x="713" y="440" type="line"/>
      <point x="806" y="458" type="line"/>
      <point x="739" y="281" type="line"/>
      <point x="698" y="290"/>
      <point x="633" y="344"/>
      <point x="598" y="421"/>
      <point x="602" y="506"/>
      <point x="643" y="579"/>
      <point x="713" y="627"/>
      <point x="797" y="639"/>
      <point x="877" y="612"/>
      <point x="936" y="552"/>
      <point x="963" y="471"/>
      <point x="950" y="388"/>
      <point x="902" y="319"/>
      <point x="865" y="298" type="qcurve"/>
      <point x="863" y="296" type="line"/>
      <point x="618" y="160" type="line"/>
      <point x="643" y="162"/>
      <point x="689" y="137"/>
      <point x="715" y="92"/>
      <point x="712" y="40"/>
      <point x="698" y="19" type="qcurve"/>
      <point x="934" y="152" type="line"/>
      <point x="1003" y="187"/>
      <point x="1096" y="309"/>
      <point x="1129" y="459"/>
      <point x="1093" y="611"/>
      <point x="996" y="730"/>
      <point x="857" y="796"/>
    </contour>
    <contour>
      <point x="1608" y="195" type="line"/>
      <point x="1607" y="195" type="line"/>
      <point x="1408" y="647" type="line"/>
      <point x="1379" y="647" type="line"/>
      <point x="1379" y="179" type="line"/>
      <point x="1394" y="179" type="line"/>
      <point x="1394" y="633" type="line"/>
      <point x="1396" y="633" type="line"/>
      <point x="1597" y="179" type="line"/>
      <point x="1617" y="179" type="line"/>
      <point x="1817" y="633" type="line"/>
      <point x="1820" y="633" type="line"/>
      <point x="1820" y="179" type="line"/>
      <point x="1835" y="179" type="line"/>
      <point x="1835" y="647" type="line"/>
      <point x="1806" y="647" type="line"/>
    </contour>
    <contour>
      <point x="1944" y="647" type="line"/>
      <point x="1959" y="647" type="line"/>
      <point x="1959" y="179" type="line"/>
      <point x="1944" y="179" type="line"/>
    </contour>
    <contour>
      <point x="2391" y="315" type="line"/>
      <point x="2384" y="387"/>
      <point x="2307" y="405" type="qcurve"/>
      <point x="2349" y="412"/>
      <point x="2377" y="445" type="qcurve"/>
      <point x="2402" y="480"/>
      <point x="2401" y="522" type="qcurve"/>
      <point x="2401" y="582"/>
      <point x="2325" y="647"/>
      <point x="2257" y="647" type="qcurve"/>
      <point x="2066" y="647" type="line"/>
      <point x="2066" y="179" type="line"/>
      <point x="2082" y="179" type="line"/>
      <point x="2082" y="397" type="line"/>
      <point x="2258" y="397" type="line"/>
      <point x="2300" y="400"/>
      <point x="2338" y="380" type="qcurve"/>
      <point x="2355" y="369"/>
      <point x="2375" y="334"/>
      <point x="2376" y="314" type="qcurve"/>
      <point x="2381" y="244" type="line"/>
      <point x="2383" y="210"/>
      <point x="2398" y="180" type="qcurve"/>
      <point x="2415" y="180" type="line"/>
      <point x="2397" y="212"/>
      <point x="2396" y="249" type="qcurve"/>
    </contour>
    <contour>
      <point x="2258" y="414" type="qcurve"/>
      <point x="2083" y="414" type="line"/>
      <point x="2083" y="631" type="line"/>
      <point x="2257" y="631" type="line"/>
      <point x="2324" y="631"/>
      <point x="2356" y="602" type="qcurve"/>
      <point x="2372" y="587"/>
      <point x="2385" y="549"/>
      <point x="2385" y="522" type="qcurve"/>
      <point x="2386" y="500"/>
      <point x="2369" y="460"/>
      <point x="2353" y="445" type="qcurve"/>
      <point x="2321" y="414"/>
    </contour>
    <contour>
      <point x="2631" y="647" type="line"/>
      <point x="2439" y="179" type="line"/>
      <point x="2458" y="179" type="line"/>
      <point x="2520" y="333" type="line"/>
      <point x="2764" y="333" type="line"/>
      <point x="2827" y="179" type="line"/>
      <point x="2845" y="179" type="line"/>
      <point x="2652" y="647" type="line"/>
    </contour>
    <contour>
      <point x="2527" y="348" type="line"/>
      <point x="2641" y="629" type="line"/>
      <point x="2643" y="629" type="line"/>
      <point x="2758" y="348" type="line"/>
    </contour>
    <contour>
      <point x="3204" y="223" type="qcurve"/>
      <point x="3152" y="184"/>
      <point x="3088" y="185" type="qcurve"/>
      <point x="3046" y="184"/>
      <point x="2971" y="219"/>
      <point x="2944" y="251" type="qcurve"/>
      <point x="2891" y="313"/>
      <point x="2891" y="507"/>
      <point x="2944" y="572" type="qcurve"/>
      <point x="2971" y="605"/>
      <point x="3048" y="640"/>
      <point x="3095" y="640" type="qcurve"/>
      <point x="3157" y="641"/>
      <point x="3208" y="605" type="qcurve"/>
      <point x="3232" y="588"/>
      <point x="3263" y="538"/>
      <point x="3267" y="508" type="qcurve"/>
      <point x="3283" y="508" type="line"/>
      <point x="3279" y="541"/>
      <point x="3245" y="598"/>
      <point x="3191" y="637"/>
      <point x="3128" y="657"/>
      <point x="3094" y="656" type="qcurve"/>
      <point x="2992" y="656"/>
      <point x="2931" y="582" type="qcurve"/>
      <point x="2902" y="545"/>
      <point x="2874" y="462"/>
      <point x="2874" y="410" type="qcurve"/>
      <point x="2874" y="308"/>
      <point x="2931" y="241" type="qcurve"/>
      <point x="2959" y="206"/>
      <point x="3039" y="170"/>
      <point x="3087" y="170" type="qcurve"/>
      <point x="3121" y="169"/>
      <point x="3187" y="190"/>
      <point x="3214" y="211" type="qcurve"/>
      <point x="3244" y="234"/>
      <point x="3282" y="299"/>
      <point x="3288" y="336" type="qcurve"/>
      <point x="3273" y="336" type="line"/>
      <point x="3267" y="302"/>
      <point x="3232" y="243"/>
    </contour>
    <contour>
      <point x="3382" y="647" type="line"/>
      <point x="3366" y="647" type="line"/>
      <point x="3366" y="179" type="line"/>
      <point x="3682" y="179" type="line"/>
      <point x="3682" y="194" type="line"/>
      <point x="3382" y="194" type="line"/>
    </contour>
    <contour>
      <point x="3763" y="415" type="line"/>
      <point x="4054" y="415" type="line"/>
      <point x="4054" y="430" type="line"/>
      <point x="3763" y="430" type="line"/>
      <point x="3763" y="631" type="line"/>
      <point x="4069" y="631" type="line"/>
      <point x="4069" y="647" type="line"/>
      <point x="3747" y="647" type="line"/>
      <point x="3747" y="179" type="line"/>
      <point x="4080" y="179" type="line"/>
      <point x="4080" y="194" type="line"/>
      <point x="3763" y="194" type="line"/>
    </contour>
    <contour>
      <point x="4655" y="397" type="qcurve"/>
      <point x="4625" y="416"/>
      <point x="4535" y="442" type="qcurve"/>
      <point x="4489" y="454"/>
      <point x="4445" y="472" type="qcurve"/>
      <point x="4401" y="495"/>
      <point x="4401" y="534" type="qcurve"/>
      <point x="4400" y="554"/>
      <point x="4420" y="590"/>
      <point x="4438" y="600" type="qcurve"/>
      <point x="4472" y="620"/>
      <point x="4527" y="620" type="qcurve"/>
      <point x="4588" y="620"/>
      <point x="4656" y="563"/>
      <point x="4662" y="509" type="qcurve"/>
      <point x="4702" y="509" type="line"/>
      <point x="4697" y="582"/>
      <point x="4604" y="656"/>
      <point x="4528" y="656" type="qcurve"/>
      <point x="4490" y="656"/>
      <point x="4434" y="641"/>
      <point x="4387" y="611"/>
      <point x="4360" y="561"/>
      <point x="4361" y="533" type="qcurve"/>
      <point x="4361" y="475"/>
      <point x="4415" y="445" type="qcurve"/>
      <point x="4439" y="431"/>
      <point x="4522" y="408" type="qcurve"/>
      <point x="4600" y="387"/>
      <point x="4625" y="372" type="qcurve"/>
      <point x="4673" y="346"/>
      <point x="4673" y="297" type="qcurve"/>
      <point x="4673" y="277"/>
      <point x="4653" y="241"/>
      <point x="4635" y="231" type="qcurve"/>
      <point x="4589" y="204"/>
      <point x="4535" y="206" type="qcurve"/>
      <point x="4471" y="206"/>
      <point x="4435" y="235" type="qcurve"/>
      <point x="4417" y="250"/>
      <point x="4393" y="301"/>
      <point x="4389" y="334" type="qcurve"/>
      <point x="4349" y="334" type="line"/>
      <point x="4355" y="249"/>
      <point x="4409" y="206" type="qcurve"/>
      <point x="4434" y="186"/>
      <point x="4465" y="178" type="qcurve"/>
      <point x="4494" y="170"/>
      <point x="4536" y="170" type="qcurve"/>
      <point x="4616" y="170"/>
      <point x="4663" y="204" type="qcurve"/>
      <point x="4687" y="219"/>
      <point x="4714" y="270"/>
      <point x="4713" y="299" type="qcurve"/>
      <point x="4713" y="362"/>
    </contour>
    <contour>
      <point x="5113" y="439" type="line"/>
      <point x="4822" y="439" type="line"/>
      <point x="4822" y="647" type="line"/>
      <point x="4783" y="647" type="line"/>
      <point x="4783" y="179" type="line"/>
      <point x="4822" y="179" type="line"/>
      <point x="4822" y="403" type="line"/>
      <point x="5113" y="403" type="line"/>
      <point x="5113" y="179" type="line"/>
      <point x="5153" y="179" type="line"/>
      <point x="5153" y="647" type="line"/>
      <point x="5113" y="647" type="line"/>
    </contour>
    <contour>
      <point x="5451" y="656" type="qcurve"/>
      <point x="5347" y="656"/>
      <point x="5286" y="585" type="qcurve"/>
      <point x="5229" y="518"/>
      <point x="5229" y="308"/>
      <point x="5286" y="241" type="qcurve"/>
      <point x="5315" y="207"/>
      <point x="5399" y="170"/>
      <point x="5451" y="170" type="qcurve"/>
      <point x="5554" y="170"/>
      <point x="5616" y="240" type="qcurve"/>
      <point x="5646" y="274"/>
      <point x="5673" y="358"/>
      <point x="5673" y="413" type="qcurve"/>
      <point x="5673" y="518"/>
      <point x="5616" y="585" type="qcurve"/>
      <point x="5586" y="619"/>
      <point x="5502" y="656"/>
    </contour>
    <contour>
      <point x="5585" y="264" type="qcurve"/>
      <point x="5535" y="206"/>
      <point x="5365" y="206"/>
      <point x="5315" y="265" type="qcurve"/>
      <point x="5291" y="294"/>
      <point x="5269" y="366"/>
      <point x="5269" y="413" type="qcurve"/>
      <point x="5269" y="503"/>
      <point x="5316" y="560" type="qcurve"/>
      <point x="5340" y="589"/>
      <point x="5409" y="619"/>
      <point x="5451" y="619" type="qcurve"/>
      <point x="5536" y="619"/>
      <point x="5585" y="561" type="qcurve"/>
      <point x="5632" y="505"/>
      <point x="5632" y="322"/>
    </contour>
    <contour>
      <point x="6251" y="647" type="line"/>
      <point x="6139" y="233" type="line"/>
      <point x="6138" y="233" type="line"/>
      <point x="6023" y="647" type="line"/>
      <point x="5977" y="647" type="line"/>
      <point x="5862" y="233" type="line"/>
      <point x="5860" y="233" type="line"/>
      <point x="5748" y="647" type="line"/>
      <point x="5703" y="647" type="line"/>
      <point x="5837" y="179" type="line"/>
      <point x="5885" y="179" type="line"/>
      <point x="5999" y="590" type="line"/>
      <point x="6001" y="590" type="line"/>
      <point x="6116" y="179" type="line"/>
      <point x="6163" y="179" type="line"/>
      <point x="6297" y="647" type="line"/>
    </contour>
  </outline>
</glyph>
<glyph name="weixin" format="2">
  <advance width="1025"/>
  <unicode hex="E60D"/>
  <outline>
    <contour>
      <point x="506" y="478" type="qcurve"/>
      <point x="518" y="478"/>
      <point x="534" y="493"/>
      <point x="534" y="515"/>
      <point x="518" y="531"/>
      <point x="495" y="531"/>
      <point x="479" y="515"/>
      <point x="479" y="493"/>
      <point x="495" y="478"/>
    </contour>
    <contour>
      <point x="371" y="531" type="qcurve"/>
      <point x="359" y="531"/>
      <point x="343" y="515"/>
      <point x="343" y="493"/>
      <point x="359" y="478"/>
      <point x="382" y="478"/>
      <point x="398" y="493"/>
      <point x="398" y="515"/>
      <point x="382" y="531"/>
    </contour>
    <contour>
      <point x="567" y="393" type="qcurve"/>
      <point x="557" y="393"/>
      <point x="544" y="380"/>
      <point x="544" y="362"/>
      <point x="557" y="349"/>
      <point x="577" y="349"/>
      <point x="590" y="362"/>
      <point x="590" y="380"/>
      <point x="577" y="393"/>
    </contour>
    <contour>
      <point x="681" y="393" type="qcurve"/>
      <point x="672" y="393"/>
      <point x="658" y="380"/>
      <point x="658" y="362"/>
      <point x="672" y="349"/>
      <point x="691" y="349"/>
      <point x="705" y="362"/>
      <point x="705" y="380"/>
      <point x="691" y="393"/>
    </contour>
    <contour>
      <point x="516" y="867" type="qcurve"/>
      <point x="386" y="867"/>
      <point x="274" y="801" type="qcurve"/>
      <point x="166" y="738"/>
      <point x="102" y="629" type="qcurve"/>
      <point x="36" y="517"/>
      <point x="36" y="256"/>
      <point x="102" y="145" type="qcurve"/>
      <point x="166" y="36"/>
      <point x="274" y="-27" type="qcurve"/>
      <point x="386" y="-93"/>
      <point x="647" y="-93"/>
      <point x="758" y="-27" type="qcurve"/>
      <point x="867" y="36"/>
      <point x="931" y="145" type="qcurve"/>
      <point x="996" y="256"/>
      <point x="996" y="517"/>
      <point x="931" y="629" type="qcurve"/>
      <point x="867" y="738"/>
      <point x="758" y="801" type="qcurve"/>
      <point x="647" y="867"/>
    </contour>
    <contour>
      <point x="439" y="285" type="line"/>
      <point x="407" y="285"/>
      <point x="377" y="294" type="qcurve"/>
      <point x="374" y="295" type="line"/>
      <point x="303" y="259" type="line"/>
      <point x="322" y="318" type="line"/>
      <point x="320" y="319" type="line"/>
      <point x="285" y="342"/>
      <point x="244" y="409"/>
      <point x="244" y="448" type="qcurve"/>
      <point x="244" y="492"/>
      <point x="296" y="567"/>
      <point x="386" y="611"/>
      <point x="439" y="611" type="qcurve"/>
      <point x="486" y="611"/>
      <point x="569" y="575"/>
      <point x="624" y="512"/>
      <point x="631" y="473" type="qcurve"/>
      <point x="623" y="473" type="line"/>
      <point x="575" y="473"/>
      <point x="493" y="433"/>
      <point x="445" y="365"/>
      <point x="445" y="325" type="qcurve"/>
      <point x="445" y="305"/>
      <point x="452" y="286" type="qcurve"/>
    </contour>
    <contour>
      <point x="724" y="214" type="qcurve"/>
      <point x="723" y="214"/>
      <point x="723" y="213" type="qcurve"/>
      <point x="739" y="164" type="line"/>
      <point x="679" y="194" type="line"/>
      <point x="676" y="193" type="line"/>
      <point x="651" y="186"/>
      <point x="624" y="186" type="qcurve"/>
      <point x="580" y="186"/>
      <point x="504" y="223"/>
      <point x="460" y="286"/>
      <point x="460" y="361"/>
      <point x="504" y="424"/>
      <point x="580" y="461"/>
      <point x="669" y="461"/>
      <point x="744" y="424"/>
      <point x="789" y="361"/>
      <point x="789" y="324" type="qcurve"/>
      <point x="789" y="291"/>
      <point x="754" y="234"/>
    </contour>
  </outline>
</glyph>
<glyph name="qijishow" format="2">
  <advance width="4591"/>
  <unicode hex="E60E"/>
  <outline>
    <contour>
      <point x="665" y="481" type="line"/>
      <point x="622" y="472" type="line"/>
      <point x="631" y="448" type="line"/>
    </contour>
    <contour>
      <point x="710" y="752" type="qcurve"/>
      <point x="637" y="752"/>
      <point x="507" y="691"/>
      <point x="414" y="582"/>
      <point x="375" y="442"/>
      <point x="399" y="301"/>
      <point x="479" y="182"/>
      <point x="541" y="144" type="qcurve"/>
      <point x="740" y="256" type="line"/>
      <point x="810" y="443" type="line"/>
      <point x="816" y="454"/>
      <point x="813" y="468" type="qcurve"/>
      <point x="810" y="484"/>
      <point x="784" y="504"/>
      <point x="767" y="503" type="qcurve"/>
      <point x="761" y="502" type="line"/>
      <point x="761" y="503" type="line"/>
      <point x="760" y="502" type="line"/>
      <point x="696" y="487" type="line"/>
      <point x="638" y="430" type="line"/>
      <point x="646" y="411" type="line"/>
      <point x="735" y="428" type="line"/>
      <point x="671" y="257" type="line"/>
      <point x="632" y="266"/>
      <point x="570" y="318"/>
      <point x="537" y="391"/>
      <point x="540" y="473"/>
      <point x="580" y="543"/>
      <point x="646" y="589"/>
      <point x="727" y="600"/>
      <point x="803" y="574"/>
      <point x="860" y="517"/>
      <point x="886" y="439"/>
      <point x="874" y="360"/>
      <point x="828" y="293"/>
      <point x="792" y="274" type="qcurve"/>
      <point x="790" y="272" type="line"/>
      <point x="554" y="141" type="line"/>
      <point x="579" y="143"/>
      <point x="623" y="120"/>
      <point x="648" y="77"/>
      <point x="646" y="27"/>
      <point x="632" y="6" type="qcurve"/>
      <point x="858" y="133" type="line"/>
      <point x="925" y="167"/>
      <point x="1014" y="284"/>
      <point x="1045" y="428"/>
      <point x="1010" y="573"/>
      <point x="917" y="687"/>
      <point x="785" y="751"/>
    </contour>
    <contour>
      <point x="1346" y="250" type="line"/>
      <point x="1345" y="250" type="line"/>
      <point x="1225" y="523" type="line"/>
      <point x="1207" y="523" type="line"/>
      <point x="1207" y="240" type="line"/>
      <point x="1216" y="240" type="line"/>
      <point x="1216" y="514" type="line"/>
      <point x="1218" y="514" type="line"/>
      <point x="1339" y="240" type="line"/>
      <point x="1351" y="240" type="line"/>
      <point x="1472" y="514" type="line"/>
      <point x="1474" y="514" type="line"/>
      <point x="1474" y="240" type="line"/>
      <point x="1483" y="240" type="line"/>
      <point x="1483" y="523" type="line"/>
      <point x="1466" y="523" type="line"/>
    </contour>
    <contour>
      <point x="1549" y="523" type="line"/>
      <point x="1558" y="523" type="line"/>
      <point x="1558" y="240" type="line"/>
      <point x="1549" y="240" type="line"/>
    </contour>
    <contour>
      <point x="1820" y="322" type="line"/>
      <point x="1816" y="365"/>
      <point x="1769" y="376" type="qcurve"/>
      <point x="1794" y="381"/>
      <point x="1826" y="422"/>
      <point x="1826" y="447" type="qcurve"/>
      <point x="1826" y="484"/>
      <point x="1780" y="523"/>
      <point x="1739" y="523" type="qcurve"/>
      <point x="1623" y="523" type="line"/>
      <point x="1623" y="240" type="line"/>
      <point x="1633" y="240" type="line"/>
      <point x="1633" y="372" type="line"/>
      <point x="1739" y="372" type="line"/>
      <point x="1765" y="374"/>
      <point x="1787" y="362" type="qcurve"/>
      <point x="1798" y="355"/>
      <point x="1810" y="334"/>
      <point x="1810" y="322" type="qcurve"/>
      <point x="1814" y="280" type="line"/>
      <point x="1815" y="259"/>
      <point x="1824" y="241" type="qcurve"/>
      <point x="1834" y="241" type="line"/>
      <point x="1823" y="260"/>
      <point x="1822" y="283" type="qcurve"/>
    </contour>
    <contour>
      <point x="1739" y="382" type="qcurve"/>
      <point x="1633" y="382" type="line"/>
      <point x="1633" y="513" type="line"/>
      <point x="1739" y="513" type="line"/>
      <point x="1779" y="513"/>
      <point x="1798" y="496" type="qcurve"/>
      <point x="1808" y="487"/>
      <point x="1816" y="464"/>
      <point x="1816" y="447" type="qcurve"/>
      <point x="1817" y="419"/>
      <point x="1777" y="382"/>
    </contour>
    <contour>
      <point x="1965" y="523" type="line"/>
      <point x="1848" y="240" type="line"/>
      <point x="1859" y="240" type="line"/>
      <point x="1897" y="333" type="line"/>
      <point x="2045" y="333" type="line"/>
      <point x="2083" y="240" type="line"/>
      <point x="2094" y="240" type="line"/>
      <point x="1978" y="523" type="line"/>
    </contour>
    <contour>
      <point x="1902" y="343" type="line"/>
      <point x="1971" y="513" type="line"/>
      <point x="1972" y="513" type="line"/>
      <point x="2041" y="343" type="line"/>
    </contour>
    <contour>
      <point x="2312" y="266" type="qcurve"/>
      <point x="2280" y="243"/>
      <point x="2241" y="243" type="qcurve"/>
      <point x="2216" y="243"/>
      <point x="2170" y="264"/>
      <point x="2154" y="283" type="qcurve"/>
      <point x="2123" y="321"/>
      <point x="2123" y="438"/>
      <point x="2154" y="477" type="qcurve"/>
      <point x="2171" y="497"/>
      <point x="2218" y="519"/>
      <point x="2246" y="519" type="qcurve"/>
      <point x="2283" y="519"/>
      <point x="2314" y="497" type="qcurve"/>
      <point x="2329" y="487"/>
      <point x="2348" y="457"/>
      <point x="2350" y="439" type="qcurve"/>
      <point x="2359" y="439" type="line"/>
      <point x="2357" y="459"/>
      <point x="2336" y="493"/>
      <point x="2320" y="505" type="qcurve"/>
      <point x="2287" y="529"/>
      <point x="2246" y="528" type="qcurve"/>
      <point x="2184" y="528"/>
      <point x="2147" y="483" type="qcurve"/>
      <point x="2113" y="441"/>
      <point x="2113" y="318"/>
      <point x="2147" y="277" type="qcurve"/>
      <point x="2183" y="234"/>
      <point x="2241" y="234" type="qcurve"/>
      <point x="2284" y="233"/>
      <point x="2318" y="259" type="qcurve"/>
      <point x="2337" y="273"/>
      <point x="2360" y="312"/>
      <point x="2363" y="335" type="qcurve"/>
      <point x="2353" y="335" type="line"/>
      <point x="2346" y="292"/>
    </contour>
    <contour>
      <point x="2419" y="523" type="line"/>
      <point x="2410" y="523" type="line"/>
      <point x="2410" y="240" type="line"/>
      <point x="2601" y="240" type="line"/>
      <point x="2601" y="249" type="line"/>
      <point x="2419" y="249" type="line"/>
    </contour>
    <contour>
      <point x="2650" y="382" type="line"/>
      <point x="2826" y="382" type="line"/>
      <point x="2826" y="392" type="line"/>
      <point x="2650" y="392" type="line"/>
      <point x="2650" y="513" type="line"/>
      <point x="2835" y="513" type="line"/>
      <point x="2835" y="523" type="line"/>
      <point x="2641" y="523" type="line"/>
      <point x="2641" y="240" type="line"/>
      <point x="2842" y="240" type="line"/>
      <point x="2842" y="249" type="line"/>
      <point x="2650" y="249" type="line"/>
    </contour>
    <contour>
      <point x="3190" y="372" type="qcurve"/>
      <point x="3172" y="383"/>
      <point x="3117" y="399" type="qcurve"/>
      <point x="3089" y="406"/>
      <point x="3063" y="417" type="qcurve"/>
      <point x="3036" y="431"/>
      <point x="3036" y="454" type="qcurve"/>
      <point x="3036" y="467"/>
      <point x="3047" y="488"/>
      <point x="3058" y="494" type="qcurve"/>
      <point x="3079" y="507"/>
      <point x="3112" y="507" type="qcurve"/>
      <point x="3149" y="507"/>
      <point x="3190" y="472"/>
      <point x="3194" y="439" type="qcurve"/>
      <point x="3219" y="439" type="line"/>
      <point x="3215" y="483"/>
      <point x="3158" y="529"/>
      <point x="3070" y="529"/>
      <point x="3042" y="510" type="qcurve"/>
      <point x="3028" y="502"/>
      <point x="3011" y="471"/>
      <point x="3012" y="454" type="qcurve"/>
      <point x="3012" y="419"/>
      <point x="3045" y="401" type="qcurve"/>
      <point x="3059" y="393"/>
      <point x="3110" y="379" type="qcurve"/>
      <point x="3157" y="366"/>
      <point x="3172" y="357" type="qcurve"/>
      <point x="3201" y="341"/>
      <point x="3201" y="312" type="qcurve"/>
      <point x="3201" y="299"/>
      <point x="3189" y="278"/>
      <point x="3178" y="272" type="qcurve"/>
      <point x="3150" y="256"/>
      <point x="3117" y="257" type="qcurve"/>
      <point x="3078" y="257"/>
      <point x="3057" y="274" type="qcurve"/>
      <point x="3046" y="283"/>
      <point x="3031" y="314"/>
      <point x="3029" y="334" type="qcurve"/>
      <point x="3005" y="334" type="line"/>
      <point x="3009" y="282"/>
      <point x="3041" y="257" type="qcurve"/>
      <point x="3057" y="244"/>
      <point x="3093" y="235"/>
      <point x="3118" y="235" type="qcurve"/>
      <point x="3167" y="235"/>
      <point x="3195" y="255" type="qcurve"/>
      <point x="3210" y="265"/>
      <point x="3226" y="295"/>
      <point x="3226" y="313" type="qcurve"/>
      <point x="3225" y="351"/>
    </contour>
    <contour>
      <point x="3467" y="397" type="line"/>
      <point x="3291" y="397" type="line"/>
      <point x="3291" y="523" type="line"/>
      <point x="3267" y="523" type="line"/>
      <point x="3267" y="240" type="line"/>
      <point x="3291" y="240" type="line"/>
      <point x="3291" y="375" type="line"/>
      <point x="3467" y="375" type="line"/>
      <point x="3467" y="240" type="line"/>
      <point x="3491" y="240" type="line"/>
      <point x="3491" y="523" type="line"/>
      <point x="3467" y="523" type="line"/>
    </contour>
    <contour>
      <point x="3672" y="528" type="qcurve"/>
      <point x="3609" y="528"/>
      <point x="3572" y="485" type="qcurve"/>
      <point x="3537" y="445"/>
      <point x="3537" y="318"/>
      <point x="3572" y="277" type="qcurve"/>
      <point x="3590" y="256"/>
      <point x="3640" y="234"/>
      <point x="3672" y="234" type="qcurve"/>
      <point x="3734" y="234"/>
      <point x="3771" y="276" type="qcurve"/>
      <point x="3789" y="297"/>
      <point x="3806" y="348"/>
      <point x="3806" y="381" type="qcurve"/>
      <point x="3806" y="445"/>
      <point x="3771" y="485" type="qcurve"/>
      <point x="3754" y="506"/>
      <point x="3702" y="528"/>
    </contour>
    <contour>
      <point x="3752" y="291" type="qcurve"/>
      <point x="3722" y="256"/>
      <point x="3619" y="256"/>
      <point x="3590" y="292" type="qcurve"/>
      <point x="3561" y="325"/>
      <point x="3561" y="436"/>
      <point x="3620" y="506"/>
      <point x="3723" y="506"/>
      <point x="3781" y="437"/>
      <point x="3781" y="327"/>
    </contour>
    <contour>
      <point x="4156" y="523" type="line"/>
      <point x="4088" y="272" type="line"/>
      <point x="4087" y="272" type="line"/>
      <point x="4018" y="523" type="line"/>
      <point x="3990" y="523" type="line"/>
      <point x="3920" y="272" type="line"/>
      <point x="3919" y="272" type="line"/>
      <point x="3852" y="523" type="line"/>
      <point x="3824" y="523" type="line"/>
      <point x="3905" y="240" type="line"/>
      <point x="3934" y="240" type="line"/>
      <point x="4003" y="488" type="line"/>
      <point x="4005" y="488" type="line"/>
      <point x="4074" y="240" type="line"/>
      <point x="4103" y="240" type="line"/>
      <point x="4183" y="523" type="line"/>
    </contour>
  </outline>
</glyph>
<glyph name="hanhua" format="2">
  <advance width="1024"/>
  <unicode hex="E60F"/>
  <outline>
    <contour>
      <point x="920" y="91" type="qcurve"/>
      <point x="903" y="91"/>
      <point x="883" y="112"/>
      <point x="883" y="128" type="qcurve"/>
      <point x="883" y="759" type="line"/>
      <point x="252" y="759" type="line"/>
      <point x="235" y="759"/>
      <point x="215" y="780"/>
      <point x="215" y="813"/>
      <point x="235" y="833"/>
      <point x="252" y="833" type="qcurve"/>
      <point x="883" y="833" type="line"/>
      <point x="916" y="833"/>
      <point x="957" y="793"/>
      <point x="957" y="759" type="qcurve"/>
      <point x="957" y="128" type="line"/>
      <point x="957" y="112"/>
      <point x="936" y="91"/>
    </contour>
    <contour>
      <point x="920" y="91" type="line"/>
    </contour>
    <contour>
      <point x="742" y="-65" type="qcurve"/>
      <point x="704" y="-65" type="line"/>
      <point x="688" y="-65"/>
      <point x="667" y="-44"/>
      <point x="667" y="-11"/>
      <point x="688" y="10"/>
      <point x="704" y="10" type="qcurve"/>
      <point x="742" y="10" type="line"/>
      <point x="742" y="611" type="line"/>
      <point x="140" y="611" type="line"/>
      <point x="140" y="17" type="line"/>
      <point x="422" y="17" type="line"/>
      <point x="439" y="17"/>
      <point x="460" y="-3"/>
      <point x="460" y="-37"/>
      <point x="439" y="-57"/>
      <point x="422" y="-57" type="qcurve"/>
      <point x="140" y="-57" type="line"/>
      <point x="107" y="-57"/>
      <point x="66" y="-16"/>
      <point x="66" y="17" type="qcurve"/>
      <point x="66" y="611" type="line"/>
      <point x="66" y="644"/>
      <point x="107" y="685"/>
      <point x="140" y="685" type="qcurve"/>
      <point x="742" y="685" type="line"/>
      <point x="775" y="685"/>
      <point x="816" y="644"/>
      <point x="816" y="611" type="qcurve"/>
      <point x="816" y="10" type="line"/>
      <point x="816" y="-24"/>
      <point x="775" y="-65"/>
    </contour>
    <contour>
      <point x="742" y="-65" type="line"/>
    </contour>
    <contour>
      <point x="421" y="499" type="line"/>
      <point x="421" y="512"/>
      <point x="432" y="522"/>
      <point x="458" y="522"/>
      <point x="471" y="512"/>
      <point x="471" y="499" type="qcurve"/>
      <point x="471" y="448" type="line"/>
      <point x="571" y="448" type="line"/>
      <point x="583" y="448"/>
      <point x="595" y="446" type="qcurve"/>
      <point x="604" y="445"/>
      <point x="615" y="434"/>
      <point x="616" y="426" type="qcurve"/>
      <point x="618" y="415"/>
      <point x="618" y="403" type="qcurve"/>
      <point x="618" y="279" type="line"/>
      <point x="618" y="268"/>
      <point x="616" y="257" type="qcurve"/>
      <point x="615" y="249"/>
      <point x="603" y="238"/>
      <point x="595" y="237" type="qcurve"/>
      <point x="583" y="234"/>
      <point x="571" y="235" type="qcurve"/>
      <point x="471" y="235" type="line"/>
      <point x="471" y="151" type="line"/>
      <point x="471" y="140"/>
      <point x="460" y="128"/>
      <point x="430" y="128"/>
      <point x="421" y="138"/>
      <point x="421" y="151" type="qcurve"/>
      <point x="421" y="235" type="line"/>
      <point x="323" y="235" type="line"/>
      <point x="311" y="234"/>
      <point x="299" y="237" type="qcurve"/>
      <point x="291" y="238"/>
      <point x="280" y="250"/>
      <point x="278" y="258" type="qcurve"/>
      <point x="277" y="268"/>
      <point x="277" y="279" type="qcurve"/>
      <point x="277" y="403" type="line"/>
      <point x="277" y="414"/>
      <point x="278" y="426" type="qcurve"/>
      <point x="279" y="433"/>
      <point x="291" y="445"/>
      <point x="299" y="446" type="qcurve"/>
      <point x="311" y="448"/>
      <point x="323" y="448" type="qcurve"/>
      <point x="421" y="448" type="line"/>
    </contour>
    <contour>
      <point x="335" y="399" type="line"/>
      <point x="329" y="399"/>
      <point x="326" y="395"/>
      <point x="326" y="387" type="qcurve"/>
      <point x="326" y="297" type="line"/>
      <point x="326" y="288"/>
      <point x="330" y="283"/>
      <point x="336" y="283" type="qcurve"/>
      <point x="421" y="283" type="line"/>
      <point x="421" y="399" type="line"/>
    </contour>
    <contour>
      <point x="471" y="399" type="line"/>
      <point x="471" y="283" type="line"/>
      <point x="557" y="283" type="line"/>
      <point x="565" y="283"/>
      <point x="569" y="288"/>
      <point x="569" y="297" type="qcurve"/>
      <point x="569" y="387" type="line"/>
      <point x="569" y="395"/>
      <point x="563" y="399"/>
      <point x="554" y="399" type="qcurve"/>
    </contour>
  </outline>
</glyph>
<glyph name="qijishow1" format="2">
  <advance width="1024"/>
  <unicode hex="E610"/>
  <outline>
    <contour>
      <point x="513" y="896" type="qcurve"/>
      <point x="413" y="896"/>
      <point x="234" y="813"/>
      <point x="106" y="663"/>
      <point x="53" y="471"/>
      <point x="85" y="277"/>
      <point x="195" y="113"/>
      <point x="281" y="62" type="qcurve"/>
      <point x="554" y="215" type="line"/>
      <point x="650" y="472" type="line"/>
      <point x="658" y="488"/>
      <point x="655" y="506" type="qcurve"/>
      <point x="651" y="528"/>
      <point x="614" y="556"/>
      <point x="591" y="554" type="qcurve"/>
      <point x="583" y="553" type="line"/>
      <point x="583" y="554" type="line"/>
      <point x="582" y="553" type="line"/>
      <point x="494" y="533" type="line"/>
      <point x="414" y="454" type="line"/>
      <point x="424" y="428" type="line"/>
      <point x="547" y="451" type="line"/>
      <point x="460" y="217" type="line"/>
      <point x="405" y="229"/>
      <point x="320" y="300"/>
      <point x="274" y="401"/>
      <point x="279" y="514"/>
      <point x="334" y="610"/>
      <point x="425" y="673"/>
      <point x="536" y="688"/>
      <point x="641" y="652"/>
      <point x="719" y="574"/>
      <point x="754" y="467"/>
      <point x="738" y="357"/>
      <point x="675" y="266"/>
      <point x="625" y="239" type="qcurve"/>
      <point x="622" y="237" type="line"/>
      <point x="299" y="57" type="line"/>
      <point x="333" y="60"/>
      <point x="394" y="28"/>
      <point x="428" y="-31"/>
      <point x="425" y="-100"/>
      <point x="405" y="-128" type="qcurve"/>
      <point x="716" y="47" type="line"/>
      <point x="807" y="93"/>
      <point x="869" y="175" type="qcurve"/>
      <point x="930" y="254"/>
      <point x="951" y="352" type="qcurve"/>
      <point x="973" y="452"/>
      <point x="925" y="651"/>
      <point x="860" y="730" type="qcurve"/>
      <point x="797" y="808"/>
      <point x="707" y="851" type="qcurve"/>
      <point x="615" y="896"/>
    </contour>
    <contour>
      <point x="453" y="527" type="line"/>
      <point x="395" y="515" type="line"/>
      <point x="407" y="482" type="line"/>
    </contour>
    <contour>
      <point x="453" y="527" type="line"/>
    </contour>
  </outline>
</glyph>
<glyph name="qijishow2" format="2">
  <advance width="1024"/>
  <unicode hex="E616"/>
  <outline>
    <contour>
      <point x="455" y="515" type="line"/>
      <point x="399" y="504" type="line"/>
      <point x="411" y="473" type="line"/>
    </contour>
    <contour>
      <point x="921" y="541" type="qcurve"/>
      <point x="899" y="633"/>
      <point x="783" y="778"/>
      <point x="616" y="861"/>
      <point x="428" y="866"/>
      <point x="257" y="790"/>
      <point x="134" y="651"/>
      <point x="81" y="470"/>
      <point x="111" y="286"/>
      <point x="214" y="131"/>
      <point x="295" y="82" type="qcurve"/>
      <point x="552" y="225" type="line"/>
      <point x="641" y="466" type="line"/>
      <point x="649" y="481"/>
      <point x="646" y="498" type="qcurve"/>
      <point x="642" y="519"/>
      <point x="608" y="545"/>
      <point x="586" y="543" type="qcurve"/>
      <point x="579" y="542" type="line"/>
      <point x="579" y="543" type="line"/>
      <point x="577" y="542" type="line"/>
      <point x="495" y="524" type="line"/>
      <point x="420" y="449" type="line"/>
      <point x="430" y="425" type="line"/>
      <point x="544" y="447" type="line"/>
      <point x="463" y="227" type="line"/>
      <point x="412" y="239"/>
      <point x="332" y="305"/>
      <point x="289" y="400"/>
      <point x="294" y="505"/>
      <point x="345" y="596"/>
      <point x="430" y="655"/>
      <point x="535" y="669"/>
      <point x="633" y="635"/>
      <point x="706" y="562"/>
      <point x="739" y="462"/>
      <point x="724" y="359"/>
      <point x="665" y="274"/>
      <point x="618" y="249" type="qcurve"/>
      <point x="615" y="246" type="line"/>
      <point x="312" y="78" type="line"/>
      <point x="344" y="80"/>
      <point x="401" y="51"/>
      <point x="433" y="-5"/>
      <point x="430" y="-70"/>
      <point x="412" y="-96" type="qcurve"/>
      <point x="703" y="68" type="line"/>
      <point x="789" y="111"/>
      <point x="904" y="262"/>
      <point x="944" y="447"/>
    </contour>
  </outline>
</glyph>
<glyph name="qijixiulogo2" format="2">
  <advance width="1034"/>
  <unicode hex="E620"/>
  <outline>
    <contour>
      <point x="693" y="153" type="qcurve"/>
      <point x="686" y="156"/>
      <point x="671" y="151"/>
      <point x="668" y="144" type="qcurve"/>
      <point x="598" y="-13" type="line"/>
      <point x="593" y="-23"/>
      <point x="606" y="-40"/>
      <point x="627" y="-38"/>
      <point x="631" y="-28" type="qcurve"/>
      <point x="702" y="129" type="line"/>
      <point x="705" y="136"/>
      <point x="700" y="150"/>
    </contour>
    <contour>
      <point x="763" y="81" type="qcurve"/>
      <point x="756" y="84"/>
      <point x="742" y="79"/>
      <point x="738" y="72" type="qcurve"/>
      <point x="701" y="-12" type="line"/>
      <point x="698" y="-19"/>
      <point x="703" y="-33"/>
      <point x="717" y="-39"/>
      <point x="731" y="-34"/>
      <point x="734" y="-27" type="qcurve"/>
      <point x="772" y="57" type="line"/>
      <point x="775" y="64"/>
      <point x="770" y="78"/>
    </contour>
    <contour>
      <point x="772" y="831" type="qcurve"/>
      <point x="755" y="839"/>
      <point x="736" y="840" type="qcurve"/>
      <point x="726" y="842"/>
      <point x="716" y="842" type="qcurve"/>
      <point x="307" y="842" type="line"/>
      <point x="277" y="842"/>
      <point x="225" y="812"/>
      <point x="194" y="760"/>
      <point x="194" y="698"/>
      <point x="225" y="647"/>
      <point x="277" y="616"/>
      <point x="307" y="616" type="qcurve"/>
      <point x="530" y="616" type="line"/>
      <point x="532" y="616"/>
      <point x="535" y="615" type="qcurve"/>
      <point x="541" y="612"/>
      <point x="545" y="601"/>
      <point x="542" y="595" type="qcurve"/>
      <point x="313" y="85" type="line"/>
      <point x="307" y="71"/>
      <point x="305" y="56" type="qcurve"/>
      <point x="321" y="55"/>
      <point x="347" y="35"/>
      <point x="357" y="4"/>
      <point x="346" y="-27"/>
      <point x="333" y="-37" type="qcurve"/>
      <point x="349" y="-54"/>
      <point x="370" y="-64" type="qcurve"/>
      <point x="398" y="-77"/>
      <point x="458" y="-70"/>
      <point x="507" y="-35"/>
      <point x="520" y="-7" type="qcurve"/>
      <point x="829" y="682" type="line"/>
      <point x="838" y="702"/>
      <point x="840" y="747"/>
      <point x="824" y="789"/>
      <point x="793" y="822"/>
    </contour>
    <contour>
      <point x="311" y="650" type="qcurve"/>
      <point x="278" y="650"/>
      <point x="231" y="697"/>
      <point x="231" y="764"/>
      <point x="278" y="811"/>
      <point x="345" y="811"/>
      <point x="392" y="764"/>
      <point x="392" y="697"/>
      <point x="345" y="650"/>
    </contour>
  </outline>
</glyph>
<glyph name="liuyan" format="2">
  <advance width="2064"/>
  <unicode hex="E623"/>
  <outline>
    <contour>
      <point x="628" y="896" type="qcurve"/>
      <point x="1636" y="896" type="line"/>
      <point x="1749" y="896"/>
      <point x="1846" y="839" type="qcurve"/>
      <point x="1941" y="784"/>
      <point x="1996" y="690" type="qcurve"/>
      <point x="2052" y="593"/>
      <point x="2052" y="480" type="qcurve"/>
      <point x="2052" y="304" type="line"/>
      <point x="2052" y="191"/>
      <point x="1996" y="94" type="qcurve"/>
      <point x="1941" y="0"/>
      <point x="1846" y="-55" type="qcurve"/>
      <point x="1749" y="-112"/>
      <point x="1636" y="-112" type="qcurve"/>
      <point x="472" y="-112" type="line"/>
      <point x="8" y="-113"/>
      <point x="0" y="-112" type="qcurve"/>
      <point x="91" y="-91"/>
      <point x="143" y="-11" type="qcurve"/>
      <point x="185" y="53"/>
      <point x="202" y="153" type="qcurve"/>
      <point x="212" y="218"/>
      <point x="212" y="304" type="qcurve"/>
      <point x="212" y="480" type="line"/>
      <point x="212" y="593"/>
      <point x="269" y="690" type="qcurve"/>
      <point x="324" y="784"/>
      <point x="419" y="839" type="qcurve"/>
      <point x="515" y="896"/>
    </contour>
  </outline>
</glyph>
<glyph name="baiduyunpan" format="2">
  <advance width="1024"/>
  <unicode hex="E628"/>
  <outline>
    <contour>
      <point x="938" y="75" type="line"/>
    </contour>
    <contour>
      <point x="883" y="75" type="qcurve"/>
      <point x="883" y="52"/>
      <point x="915" y="19"/>
      <point x="961" y="19"/>
      <point x="993" y="52"/>
      <point x="993" y="97"/>
      <point x="961" y="130"/>
      <point x="915" y="130"/>
      <point x="883" y="97"/>
    </contour>
    <contour>
      <point x="896" y="212" type="qcurve"/>
      <point x="912" y="196"/>
      <point x="958" y="196"/>
      <point x="991" y="230"/>
      <point x="990" y="254" type="qcurve"/>
      <point x="990" y="254" type="line"/>
      <point x="991" y="302"/>
      <point x="956" y="391"/>
      <point x="886" y="461"/>
      <point x="794" y="496"/>
      <point x="746" y="494" type="qcurve"/>
      <point x="749" y="513"/>
      <point x="749" y="531" type="qcurve"/>
      <point x="749" y="595"/>
      <point x="685" y="704"/>
      <point x="577" y="767"/>
      <point x="449" y="767"/>
      <point x="340" y="704"/>
      <point x="276" y="595"/>
      <point x="276" y="531" type="qcurve"/>
      <point x="276" y="511"/>
      <point x="280" y="492" type="qcurve"/>
      <point x="276" y="492" type="line"/>
      <point x="220" y="492"/>
      <point x="122" y="443"/>
      <point x="56" y="357"/>
      <point x="45" y="303" type="qcurve"/>
      <point x="42" y="286" type="line"/>
      <point x="40" y="256" type="line"/>
      <point x="40" y="202"/>
      <point x="64" y="153" type="qcurve"/>
      <point x="93" y="93"/>
      <point x="207" y="19"/>
      <point x="276" y="19" type="qcurve"/>
      <point x="282" y="19" type="line"/>
      <point x="321" y="24" type="line"/>
      <point x="349" y="31" type="line"/>
      <point x="358" y="34"/>
      <point x="366" y="37" type="qcurve"/>
      <point x="376" y="41" type="line"/>
      <point x="439" y="71"/>
      <point x="477" y="130" type="qcurve"/>
      <point x="679" y="359" type="line"/>
      <point x="716" y="387"/>
      <point x="810" y="381"/>
      <point x="843" y="347" type="qcurve"/>
      <point x="862" y="329"/>
      <point x="881" y="280"/>
      <point x="880" y="254" type="qcurve"/>
      <point x="880" y="254" type="line"/>
      <point x="879" y="230"/>
    </contour>
    <contour>
      <point x="376" y="179" type="qcurve"/>
      <point x="366" y="167" type="line"/>
      <point x="365" y="166" type="line"/>
      <point x="365" y="166" type="line"/>
      <point x="350" y="151"/>
      <point x="331" y="142" type="qcurve"/>
      <point x="319" y="137" type="line"/>
      <point x="302" y="132" type="line"/>
      <point x="276" y="130" type="line"/>
      <point x="242" y="130"/>
      <point x="184" y="164"/>
      <point x="150" y="221"/>
      <point x="150" y="256" type="qcurve"/>
      <point x="151" y="268" type="line"/>
      <point x="157" y="296" type="line"/>
      <point x="165" y="314" type="line"/>
      <point x="173" y="329"/>
      <point x="185" y="342" type="qcurve"/>
      <point x="188" y="345" type="line"/>
      <point x="205" y="362"/>
      <point x="251" y="382"/>
      <point x="276" y="382" type="qcurve"/>
      <point x="311" y="382"/>
      <point x="369" y="348"/>
      <point x="402" y="290"/>
      <point x="402" y="256" type="qcurve"/>
      <point x="402" y="213"/>
    </contour>
    <contour>
      <point x="513" y="405" type="qcurve"/>
      <point x="478" y="405"/>
      <point x="421" y="439"/>
      <point x="387" y="497"/>
      <point x="387" y="565"/>
      <point x="421" y="623"/>
      <point x="478" y="657"/>
      <point x="547" y="657"/>
      <point x="605" y="623"/>
      <point x="639" y="565"/>
      <point x="639" y="497"/>
      <point x="605" y="439"/>
      <point x="547" y="405"/>
    </contour>
  </outline>
</glyph>
<glyph name="LearningCenter" format="2">
  <advance width="1024"/>
  <unicode hex="E62A"/>
  <outline>
    <contour>
      <point x="979" y="738" type="qcurve"/>
      <point x="981" y="732"/>
      <point x="981" y="724" type="qcurve"/>
      <point x="981" y="124" type="line"/>
      <point x="981" y="107"/>
      <point x="960" y="80"/>
      <point x="944" y="75" type="qcurve"/>
      <point x="539" y="-35" type="line"/>
      <point x="512" y="-43"/>
      <point x="485" y="-35" type="qcurve"/>
      <point x="80" y="75" type="line"/>
      <point x="64" y="80"/>
      <point x="43" y="107"/>
      <point x="43" y="124" type="qcurve"/>
      <point x="43" y="724" type="line"/>
      <point x="43" y="736"/>
      <point x="53" y="758"/>
      <point x="73" y="773"/>
      <point x="96" y="777"/>
      <point x="108" y="774" type="qcurve"/>
      <point x="498" y="664" type="line"/>
      <point x="512" y="660"/>
      <point x="526" y="664" type="qcurve"/>
      <point x="916" y="774" type="line"/>
      <point x="937" y="779"/>
      <point x="974" y="759"/>
    </contour>
    <contour>
      <point x="512" y="469" type="qcurve"/>
      <point x="494" y="469"/>
      <point x="469" y="444"/>
      <point x="469" y="427" type="qcurve"/>
      <point x="469" y="213" type="line"/>
      <point x="469" y="196"/>
      <point x="494" y="171"/>
      <point x="530" y="171"/>
      <point x="555" y="196"/>
      <point x="555" y="213" type="qcurve"/>
      <point x="555" y="427" type="line"/>
      <point x="555" y="444"/>
      <point x="530" y="469"/>
    </contour>
  </outline>
</glyph>
<glyph name="GroupCopy" format="2">
  <advance width="1387"/>
  <unicode hex="E62B"/>
  <outline>
    <contour>
      <point x="390" y="-125" type="line"/>
      <point x="411" y="-109"/>
      <point x="434" y="-95" type="qcurve"/>
      <point x="33" y="-95" type="line"/>
      <point x="19" y="-95"/>
      <point x="0" y="-76"/>
      <point x="0" y="-63" type="qcurve"/>
      <point x="0" y="863" type="line"/>
      <point x="0" y="877"/>
      <point x="19" y="896"/>
      <point x="33" y="896" type="qcurve"/>
      <point x="1354" y="896" type="line"/>
      <point x="1368" y="896"/>
      <point x="1387" y="877"/>
      <point x="1387" y="863" type="qcurve"/>
      <point x="1387" y="-63" type="line"/>
      <point x="1387" y="-76"/>
      <point x="1368" y="-95"/>
      <point x="1354" y="-95" type="qcurve"/>
      <point x="953" y="-95" type="line"/>
      <point x="976" y="-109"/>
      <point x="997" y="-125" type="qcurve"/>
      <point x="906" y="-125" type="line"/>
      <point x="861" y="-101"/>
      <point x="750" y="-74"/>
      <point x="629" y="-74"/>
      <point x="518" y="-101"/>
      <point x="472" y="-125" type="qcurve"/>
    </contour>
    <contour>
      <point x="688" y="587" type="qcurve"/>
      <point x="647" y="587"/>
      <point x="577" y="546"/>
      <point x="536" y="477"/>
      <point x="536" y="394"/>
      <point x="577" y="325"/>
      <point x="647" y="284"/>
      <point x="729" y="284"/>
      <point x="799" y="325"/>
      <point x="840" y="394"/>
      <point x="840" y="477"/>
      <point x="799" y="546"/>
      <point x="729" y="587"/>
    </contour>
    <contour>
      <point x="771" y="408" type="line"/>
      <point x="674" y="408" type="line"/>
      <point x="674" y="518" type="line"/>
      <point x="702" y="518" type="line"/>
      <point x="702" y="435" type="line"/>
      <point x="771" y="435" type="line"/>
    </contour>
  </outline>
</glyph>
<glyph name="Group" format="2">
  <advance width="1387"/>
  <unicode hex="E62C"/>
  <outline>
    <contour>
      <point x="390" y="-125" type="line"/>
      <point x="411" y="-109"/>
      <point x="434" y="-95" type="qcurve"/>
      <point x="33" y="-95" type="line"/>
      <point x="19" y="-95"/>
      <point x="0" y="-76"/>
      <point x="0" y="-63" type="qcurve"/>
      <point x="0" y="863" type="line"/>
      <point x="0" y="877"/>
      <point x="19" y="896"/>
      <point x="33" y="896" type="qcurve"/>
      <point x="1354" y="896" type="line"/>
      <point x="1368" y="896"/>
      <point x="1387" y="877"/>
      <point x="1387" y="863" type="qcurve"/>
      <point x="1387" y="-63" type="line"/>
      <point x="1387" y="-76"/>
      <point x="1368" y="-95"/>
      <point x="1354" y="-95" type="qcurve"/>
      <point x="953" y="-95" type="line"/>
      <point x="976" y="-109"/>
      <point x="997" y="-125" type="qcurve"/>
      <point x="906" y="-125" type="line"/>
      <point x="861" y="-101"/>
      <point x="750" y="-74"/>
      <point x="629" y="-74"/>
      <point x="518" y="-101"/>
      <point x="472" y="-125" type="qcurve"/>
    </contour>
    <contour>
      <point x="81" y="853" type="line"/>
      <point x="68" y="853"/>
      <point x="49" y="834"/>
      <point x="49" y="820" type="qcurve"/>
      <point x="49" y="56" type="line"/>
      <point x="49" y="43"/>
      <point x="68" y="24"/>
      <point x="81" y="24" type="qcurve"/>
      <point x="1311" y="24" type="line"/>
      <point x="1325" y="24"/>
      <point x="1344" y="43"/>
      <point x="1344" y="56" type="qcurve"/>
      <point x="1344" y="820" type="line"/>
      <point x="1344" y="834"/>
      <point x="1325" y="853"/>
      <point x="1311" y="853" type="qcurve"/>
    </contour>
    <contour>
      <point x="688" y="587" type="qcurve"/>
      <point x="729" y="587"/>
      <point x="799" y="546"/>
      <point x="840" y="477"/>
      <point x="840" y="394"/>
      <point x="799" y="325"/>
      <point x="729" y="284"/>
      <point x="647" y="284"/>
      <point x="577" y="325"/>
      <point x="536" y="394"/>
      <point x="536" y="477"/>
      <point x="577" y="546"/>
      <point x="647" y="587"/>
    </contour>
    <contour>
      <point x="771" y="408" type="line"/>
      <point x="771" y="435" type="line"/>
      <point x="702" y="435" type="line"/>
      <point x="702" y="518" type="line"/>
      <point x="674" y="518" type="line"/>
      <point x="674" y="408" type="line"/>
    </contour>
  </outline>
</glyph>
<glyph name="GroupCopy1" format="2">
  <advance width="1387"/>
  <unicode hex="E62D"/>
  <outline>
    <contour>
      <point x="390" y="-125" type="line"/>
      <point x="411" y="-109"/>
      <point x="434" y="-95" type="qcurve"/>
      <point x="33" y="-95" type="line"/>
      <point x="19" y="-95"/>
      <point x="0" y="-76"/>
      <point x="0" y="-63" type="qcurve"/>
      <point x="0" y="863" type="line"/>
      <point x="0" y="877"/>
      <point x="19" y="896"/>
      <point x="33" y="896" type="qcurve"/>
      <point x="1354" y="896" type="line"/>
      <point x="1368" y="896"/>
      <point x="1387" y="877"/>
      <point x="1387" y="863" type="qcurve"/>
      <point x="1387" y="-63" type="line"/>
      <point x="1387" y="-76"/>
      <point x="1368" y="-95"/>
      <point x="1354" y="-95" type="qcurve"/>
      <point x="953" y="-95" type="line"/>
      <point x="976" y="-109"/>
      <point x="997" y="-125" type="qcurve"/>
      <point x="906" y="-125" type="line"/>
      <point x="861" y="-101"/>
      <point x="750" y="-74"/>
      <point x="629" y="-74"/>
      <point x="518" y="-101"/>
      <point x="472" y="-125" type="qcurve"/>
    </contour>
    <contour>
      <point x="808" y="498" type="line"/>
      <point x="808" y="526"/>
      <point x="778" y="577"/>
      <point x="727" y="609"/>
      <point x="668" y="609"/>
      <point x="617" y="577"/>
      <point x="586" y="526"/>
      <point x="586" y="498" type="qcurve"/>
      <point x="616" y="498" type="line"/>
      <point x="616" y="533"/>
      <point x="663" y="580"/>
      <point x="732" y="580"/>
      <point x="779" y="533"/>
      <point x="779" y="498" type="qcurve"/>
    </contour>
    <contour>
      <point x="845" y="450" type="line"/>
      <point x="845" y="462"/>
      <point x="828" y="479"/>
      <point x="816" y="479" type="qcurve"/>
      <point x="582" y="479" type="line"/>
      <point x="570" y="479"/>
      <point x="553" y="462"/>
      <point x="553" y="450" type="qcurve"/>
      <point x="553" y="313" type="line"/>
      <point x="553" y="301"/>
      <point x="570" y="284"/>
      <point x="582" y="284" type="qcurve"/>
      <point x="816" y="284" type="line"/>
      <point x="828" y="284"/>
      <point x="845" y="301"/>
      <point x="845" y="313" type="qcurve"/>
    </contour>
  </outline>
</glyph>
<glyph name="Group1" format="2">
  <advance width="1387"/>
  <unicode hex="E62E"/>
  <outline>
    <contour>
      <point x="390" y="-125" type="line"/>
      <point x="411" y="-109"/>
      <point x="434" y="-95" type="qcurve"/>
      <point x="33" y="-95" type="line"/>
      <point x="19" y="-95"/>
      <point x="0" y="-76"/>
      <point x="0" y="-63" type="qcurve"/>
      <point x="0" y="863" type="line"/>
      <point x="0" y="877"/>
      <point x="19" y="896"/>
      <point x="33" y="896" type="qcurve"/>
      <point x="1354" y="896" type="line"/>
      <point x="1368" y="896"/>
      <point x="1387" y="877"/>
      <point x="1387" y="863" type="qcurve"/>
      <point x="1387" y="-63" type="line"/>
      <point x="1387" y="-76"/>
      <point x="1368" y="-95"/>
      <point x="1354" y="-95" type="qcurve"/>
      <point x="953" y="-95" type="line"/>
      <point x="976" y="-109"/>
      <point x="997" y="-125" type="qcurve"/>
      <point x="906" y="-125" type="line"/>
      <point x="861" y="-101"/>
      <point x="750" y="-74"/>
      <point x="629" y="-74"/>
      <point x="518" y="-101"/>
      <point x="472" y="-125" type="qcurve"/>
    </contour>
    <contour>
      <point x="81" y="853" type="line"/>
      <point x="68" y="853"/>
      <point x="49" y="834"/>
      <point x="49" y="820" type="qcurve"/>
      <point x="49" y="56" type="line"/>
      <point x="49" y="43"/>
      <point x="68" y="24"/>
      <point x="81" y="24" type="qcurve"/>
      <point x="1311" y="24" type="line"/>
      <point x="1325" y="24"/>
      <point x="1344" y="43"/>
      <point x="1344" y="56" type="qcurve"/>
      <point x="1344" y="820" type="line"/>
      <point x="1344" y="834"/>
      <point x="1325" y="853"/>
      <point x="1311" y="853" type="qcurve"/>
    </contour>
    <contour>
      <point x="808" y="498" type="qcurve"/>
      <point x="779" y="498" type="line"/>
      <point x="779" y="533"/>
      <point x="732" y="580"/>
      <point x="663" y="580"/>
      <point x="616" y="533"/>
      <point x="616" y="498" type="qcurve"/>
      <point x="586" y="498" type="line"/>
      <point x="586" y="526"/>
      <point x="617" y="577"/>
      <point x="668" y="609"/>
      <point x="727" y="609"/>
      <point x="778" y="577"/>
      <point x="808" y="526"/>
    </contour>
    <contour>
      <point x="845" y="450" type="qcurve"/>
      <point x="845" y="450" type="line"/>
      <point x="845" y="313" type="line"/>
      <point x="845" y="301"/>
      <point x="828" y="284"/>
      <point x="816" y="284" type="qcurve"/>
      <point x="582" y="284" type="line"/>
      <point x="570" y="284"/>
      <point x="553" y="301"/>
      <point x="553" y="313" type="qcurve"/>
      <point x="553" y="450" type="line"/>
      <point x="553" y="462"/>
      <point x="570" y="479"/>
      <point x="582" y="479" type="qcurve"/>
      <point x="816" y="479" type="line"/>
      <point x="828" y="479"/>
      <point x="845" y="462"/>
    </contour>
    <contour>
      <point x="722" y="343" type="qcurve"/>
      <point x="722" y="402" type="line"/>
      <point x="722" y="411"/>
      <point x="709" y="423"/>
      <point x="700" y="423" type="qcurve"/>
      <point x="697" y="423" type="line"/>
      <point x="688" y="423"/>
      <point x="675" y="411"/>
      <point x="675" y="402" type="qcurve"/>
      <point x="675" y="343" type="line"/>
      <point x="675" y="334"/>
      <point x="688" y="321"/>
      <point x="697" y="321" type="qcurve"/>
      <point x="700" y="321" type="line"/>
      <point x="709" y="321"/>
      <point x="722" y="334"/>
    </contour>
  </outline>
</glyph>
<glyph name="GroupCopy3" format="2">
  <advance width="1387"/>
  <unicode hex="E630"/>
  <outline>
    <contour>
      <point x="390" y="-125" type="line"/>
      <point x="411" y="-109"/>
      <point x="434" y="-95" type="qcurve"/>
      <point x="33" y="-95" type="line"/>
      <point x="19" y="-95"/>
      <point x="0" y="-76"/>
      <point x="0" y="-63" type="qcurve"/>
      <point x="0" y="863" type="line"/>
      <point x="0" y="877"/>
      <point x="19" y="896"/>
      <point x="33" y="896" type="qcurve"/>
      <point x="1354" y="896" type="line"/>
      <point x="1368" y="896"/>
      <point x="1387" y="877"/>
      <point x="1387" y="863" type="qcurve"/>
      <point x="1387" y="-63" type="line"/>
      <point x="1387" y="-76"/>
      <point x="1368" y="-95"/>
      <point x="1354" y="-95" type="qcurve"/>
      <point x="953" y="-95" type="line"/>
      <point x="976" y="-109"/>
      <point x="997" y="-125" type="qcurve"/>
      <point x="906" y="-125" type="line"/>
      <point x="861" y="-101"/>
      <point x="750" y="-74"/>
      <point x="629" y="-74"/>
      <point x="518" y="-101"/>
      <point x="472" y="-125" type="qcurve"/>
    </contour>
    <contour>
      <point x="788" y="593" type="qcurve"/>
      <point x="599" y="593" type="line"/>
      <point x="573" y="593"/>
      <point x="536" y="556"/>
      <point x="536" y="530" type="qcurve"/>
      <point x="536" y="278" type="line"/>
      <point x="596" y="326" type="line"/>
      <point x="788" y="325" type="line"/>
      <point x="814" y="325"/>
      <point x="851" y="362"/>
      <point x="851" y="388" type="qcurve"/>
      <point x="851" y="530" type="line"/>
      <point x="851" y="556"/>
      <point x="814" y="593"/>
    </contour>
    <contour>
      <point x="753" y="398" type="line"/>
      <point x="722" y="398" type="line"/>
      <point x="660" y="491" type="line"/>
      <point x="660" y="398" type="line"/>
      <point x="628" y="398" type="line"/>
      <point x="628" y="538" type="line"/>
      <point x="660" y="538" type="line"/>
      <point x="722" y="445" type="line"/>
      <point x="722" y="538" type="line"/>
      <point x="753" y="538" type="line"/>
    </contour>
  </outline>
</glyph>
<glyph name="Group2" format="2">
  <advance width="1387"/>
  <unicode hex="E631"/>
  <outline>
    <contour>
      <point x="390" y="-125" type="line"/>
      <point x="411" y="-109"/>
      <point x="434" y="-95" type="qcurve"/>
      <point x="33" y="-95" type="line"/>
      <point x="19" y="-95"/>
      <point x="0" y="-76"/>
      <point x="0" y="-63" type="qcurve"/>
      <point x="0" y="863" type="line"/>
      <point x="0" y="877"/>
      <point x="19" y="896"/>
      <point x="33" y="896" type="qcurve"/>
      <point x="1354" y="896" type="line"/>
      <point x="1368" y="896"/>
      <point x="1387" y="877"/>
      <point x="1387" y="863" type="qcurve"/>
      <point x="1387" y="-63" type="line"/>
      <point x="1387" y="-76"/>
      <point x="1368" y="-95"/>
      <point x="1354" y="-95" type="qcurve"/>
      <point x="953" y="-95" type="line"/>
      <point x="976" y="-109"/>
      <point x="997" y="-125" type="qcurve"/>
      <point x="906" y="-125" type="line"/>
      <point x="861" y="-101"/>
      <point x="750" y="-74"/>
      <point x="629" y="-74"/>
      <point x="518" y="-101"/>
      <point x="472" y="-125" type="qcurve"/>
    </contour>
    <contour>
      <point x="81" y="853" type="line"/>
      <point x="68" y="853"/>
      <point x="49" y="834"/>
      <point x="49" y="820" type="qcurve"/>
      <point x="49" y="56" type="line"/>
      <point x="49" y="43"/>
      <point x="68" y="24"/>
      <point x="81" y="24" type="qcurve"/>
      <point x="1311" y="24" type="line"/>
      <point x="1325" y="24"/>
      <point x="1344" y="43"/>
      <point x="1344" y="56" type="qcurve"/>
      <point x="1344" y="820" type="line"/>
      <point x="1344" y="834"/>
      <point x="1325" y="853"/>
      <point x="1311" y="853" type="qcurve"/>
    </contour>
    <contour>
      <point x="837" y="545" type="qcurve"/>
      <point x="838" y="542"/>
      <point x="840" y="534"/>
      <point x="840" y="525"/>
      <point x="837" y="517"/>
      <point x="833" y="513" type="qcurve"/>
      <point x="815" y="496" type="line"/>
      <point x="753" y="558" type="line"/>
      <point x="772" y="575" type="line"/>
      <point x="776" y="579"/>
      <point x="786" y="582"/>
      <point x="796" y="582"/>
      <point x="804" y="579"/>
      <point x="808" y="577" type="qcurve"/>
      <point x="815" y="574"/>
      <point x="832" y="555"/>
    </contour>
    <contour>
      <point x="578" y="382" type="qcurve"/>
      <point x="581" y="385"/>
      <point x="587" y="392" type="qcurve"/>
      <point x="728" y="533" type="line"/>
      <point x="790" y="471" type="line"/>
      <point x="642" y="322" type="line"/>
      <point x="634" y="315" type="line"/>
      <point x="630" y="312"/>
      <point x="621" y="308"/>
      <point x="612" y="304" type="qcurve"/>
      <point x="593" y="298" type="line"/>
      <point x="574" y="292" type="line"/>
      <point x="561" y="289" type="line"/>
      <point x="552" y="288"/>
      <point x="546" y="296"/>
      <point x="548" y="304" type="qcurve"/>
      <point x="548" y="309"/>
      <point x="551" y="318" type="qcurve"/>
      <point x="562" y="354" type="line"/>
      <point x="564" y="362"/>
      <point x="568" y="370"/>
      <point x="573" y="377"/>
    </contour>
  </outline>
</glyph>
<glyph name="Group3" format="2">
  <advance width="1387"/>
  <unicode hex="E632"/>
  <outline>
    <contour>
      <point x="390" y="-125" type="line"/>
      <point x="411" y="-109"/>
      <point x="434" y="-95" type="qcurve"/>
      <point x="33" y="-95" type="line"/>
      <point x="19" y="-95"/>
      <point x="0" y="-76"/>
      <point x="0" y="-63" type="qcurve"/>
      <point x="0" y="863" type="line"/>
      <point x="0" y="877"/>
      <point x="19" y="896"/>
      <point x="33" y="896" type="qcurve"/>
      <point x="1354" y="896" type="line"/>
      <point x="1368" y="896"/>
      <point x="1387" y="877"/>
      <point x="1387" y="863" type="qcurve"/>
      <point x="1387" y="-63" type="line"/>
      <point x="1387" y="-76"/>
      <point x="1368" y="-95"/>
      <point x="1354" y="-95" type="qcurve"/>
      <point x="953" y="-95" type="line"/>
      <point x="976" y="-109"/>
      <point x="997" y="-125" type="qcurve"/>
      <point x="906" y="-125" type="line"/>
      <point x="861" y="-101"/>
      <point x="750" y="-74"/>
      <point x="629" y="-74"/>
      <point x="518" y="-101"/>
      <point x="472" y="-125" type="qcurve"/>
    </contour>
    <contour>
      <point x="81" y="853" type="line"/>
      <point x="68" y="853"/>
      <point x="49" y="834"/>
      <point x="49" y="820" type="qcurve"/>
      <point x="49" y="56" type="line"/>
      <point x="49" y="43"/>
      <point x="68" y="24"/>
      <point x="81" y="24" type="qcurve"/>
      <point x="1311" y="24" type="line"/>
      <point x="1325" y="24"/>
      <point x="1344" y="43"/>
      <point x="1344" y="56" type="qcurve"/>
      <point x="1344" y="820" type="line"/>
      <point x="1344" y="834"/>
      <point x="1325" y="853"/>
      <point x="1311" y="853" type="qcurve"/>
    </contour>
    <contour>
      <point x="788" y="593" type="line"/>
      <point x="814" y="593"/>
      <point x="851" y="556"/>
      <point x="851" y="530" type="qcurve"/>
      <point x="851" y="388" type="line"/>
      <point x="851" y="362"/>
      <point x="814" y="325"/>
      <point x="788" y="325" type="qcurve"/>
      <point x="596" y="326" type="line"/>
      <point x="536" y="278" type="line"/>
      <point x="536" y="530" type="line"/>
      <point x="536" y="556"/>
      <point x="573" y="593"/>
      <point x="599" y="593" type="qcurve"/>
    </contour>
    <contour>
      <point x="753" y="398" type="line"/>
      <point x="753" y="538" type="line"/>
      <point x="722" y="538" type="line"/>
      <point x="722" y="445" type="line"/>
      <point x="660" y="538" type="line"/>
      <point x="628" y="538" type="line"/>
      <point x="628" y="398" type="line"/>
      <point x="660" y="398" type="line"/>
      <point x="660" y="491" type="line"/>
      <point x="722" y="398" type="line"/>
    </contour>
  </outline>
</glyph>
<glyph name="GroupCopy4" format="2">
  <advance width="1387"/>
  <unicode hex="E633"/>
  <outline>
    <contour>
      <point x="390" y="-125" type="line"/>
      <point x="411" y="-109"/>
      <point x="434" y="-95" type="qcurve"/>
      <point x="33" y="-95" type="line"/>
      <point x="19" y="-95"/>
      <point x="0" y="-76"/>
      <point x="0" y="-63" type="qcurve"/>
      <point x="0" y="863" type="line"/>
      <point x="0" y="877"/>
      <point x="19" y="896"/>
      <point x="33" y="896" type="qcurve"/>
      <point x="1354" y="896" type="line"/>
      <point x="1368" y="896"/>
      <point x="1387" y="877"/>
      <point x="1387" y="863" type="qcurve"/>
      <point x="1387" y="-63" type="line"/>
      <point x="1387" y="-76"/>
      <point x="1368" y="-95"/>
      <point x="1354" y="-95" type="qcurve"/>
      <point x="953" y="-95" type="line"/>
      <point x="976" y="-109"/>
      <point x="997" y="-125" type="qcurve"/>
      <point x="906" y="-125" type="line"/>
      <point x="861" y="-101"/>
      <point x="750" y="-74"/>
      <point x="629" y="-74"/>
      <point x="518" y="-101"/>
      <point x="472" y="-125" type="qcurve"/>
    </contour>
    <contour>
      <point x="702" y="295" type="line"/>
      <point x="787" y="471" type="line"/>
      <point x="616" y="471" type="line"/>
    </contour>
    <contour>
      <point x="702" y="295" type="line"/>
      <point x="856" y="476" type="line"/>
      <point x="798" y="471" type="line"/>
    </contour>
    <contour>
      <point x="702" y="295" type="line"/>
      <point x="605" y="471" type="line"/>
      <point x="547" y="476" type="line"/>
    </contour>
    <contour>
      <point x="789" y="567" type="line"/>
      <point x="798" y="480" type="line"/>
      <point x="856" y="476" type="line"/>
    </contour>
    <contour>
      <point x="789" y="567" type="line"/>
      <point x="702" y="576" type="line"/>
      <point x="789" y="485" type="line"/>
    </contour>
    <contour>
      <point x="702" y="576" type="line"/>
      <point x="618" y="480" type="line"/>
      <point x="785" y="480" type="line"/>
    </contour>
    <contour>
      <point x="614" y="567" type="line"/>
      <point x="614" y="485" type="line"/>
      <point x="702" y="576" type="line"/>
    </contour>
    <contour>
      <point x="614" y="567" type="line"/>
      <point x="547" y="476" type="line"/>
      <point x="605" y="480" type="line"/>
    </contour>
  </outline>
</glyph>
<glyph name="Group4" format="2">
  <advance width="1387"/>
  <unicode hex="E634"/>
  <outline>
    <contour>
      <point x="390" y="-125" type="line"/>
      <point x="411" y="-109"/>
      <point x="434" y="-95" type="qcurve"/>
      <point x="33" y="-95" type="line"/>
      <point x="19" y="-95"/>
      <point x="0" y="-76"/>
      <point x="0" y="-63" type="qcurve"/>
      <point x="0" y="863" type="line"/>
      <point x="0" y="877"/>
      <point x="19" y="896"/>
      <point x="33" y="896" type="qcurve"/>
      <point x="1354" y="896" type="line"/>
      <point x="1368" y="896"/>
      <point x="1387" y="877"/>
      <point x="1387" y="863" type="qcurve"/>
      <point x="1387" y="-63" type="line"/>
      <point x="1387" y="-76"/>
      <point x="1368" y="-95"/>
      <point x="1354" y="-95" type="qcurve"/>
      <point x="953" y="-95" type="line"/>
      <point x="976" y="-109"/>
      <point x="997" y="-125" type="qcurve"/>
      <point x="906" y="-125" type="line"/>
      <point x="861" y="-101"/>
      <point x="750" y="-74"/>
      <point x="629" y="-74"/>
      <point x="518" y="-101"/>
      <point x="472" y="-125" type="qcurve"/>
    </contour>
    <contour>
      <point x="81" y="853" type="line"/>
      <point x="68" y="853"/>
      <point x="49" y="834"/>
      <point x="49" y="820" type="qcurve"/>
      <point x="49" y="56" type="line"/>
      <point x="49" y="43"/>
      <point x="68" y="24"/>
      <point x="81" y="24" type="qcurve"/>
      <point x="1311" y="24" type="line"/>
      <point x="1325" y="24"/>
      <point x="1344" y="43"/>
      <point x="1344" y="56" type="qcurve"/>
      <point x="1344" y="820" type="line"/>
      <point x="1344" y="834"/>
      <point x="1325" y="853"/>
      <point x="1311" y="853" type="qcurve"/>
    </contour>
    <contour>
      <point x="702" y="295" type="line"/>
      <point x="616" y="471" type="line"/>
      <point x="787" y="471" type="line"/>
    </contour>
    <contour>
      <point x="702" y="295" type="line"/>
      <point x="798" y="471" type="line"/>
      <point x="856" y="476" type="line"/>
    </contour>
    <contour>
      <point x="702" y="295" type="line"/>
      <point x="547" y="476" type="line"/>
      <point x="605" y="471" type="line"/>
    </contour>
    <contour>
      <point x="789" y="567" type="line"/>
      <point x="856" y="476" type="line"/>
      <point x="798" y="480" type="line"/>
    </contour>
    <contour>
      <point x="789" y="567" type="line"/>
      <point x="789" y="485" type="line"/>
      <point x="702" y="576" type="line"/>
    </contour>
    <contour>
      <point x="702" y="576" type="line"/>
      <point x="785" y="480" type="line"/>
      <point x="618" y="480" type="line"/>
    </contour>
    <contour>
      <point x="614" y="567" type="line"/>
      <point x="702" y="576" type="line"/>
      <point x="614" y="485" type="line"/>
    </contour>
    <contour>
      <point x="614" y="567" type="line"/>
      <point x="605" y="480" type="line"/>
      <point x="547" y="476" type="line"/>
    </contour>
  </outline>
</glyph>
<glyph name="GroupCopy5" format="2">
  <advance width="1387"/>
  <unicode hex="E635"/>
  <outline>
    <contour>
      <point x="661" y="435" type="line"/>
      <point x="623" y="435" type="line"/>
      <point x="622" y="435" type="line"/>
      <point x="611" y="435"/>
      <point x="596" y="420"/>
      <point x="596" y="400"/>
      <point x="603" y="393" type="qcurve"/>
      <point x="682" y="308" type="line"/>
      <point x="690" y="300"/>
      <point x="713" y="300"/>
      <point x="721" y="308" type="qcurve"/>
      <point x="800" y="393" type="line"/>
      <point x="807" y="400"/>
      <point x="807" y="420"/>
      <point x="792" y="435"/>
      <point x="781" y="435" type="qcurve"/>
      <point x="748" y="435" type="line"/>
      <point x="748" y="571" type="line"/>
      <point x="661" y="571" type="line"/>
    </contour>
    <contour>
      <point x="390" y="-125" type="line"/>
      <point x="411" y="-109"/>
      <point x="434" y="-95" type="qcurve"/>
      <point x="33" y="-95" type="line"/>
      <point x="19" y="-95"/>
      <point x="0" y="-76"/>
      <point x="0" y="-63" type="qcurve"/>
      <point x="0" y="863" type="line"/>
      <point x="0" y="877"/>
      <point x="19" y="896"/>
      <point x="33" y="896" type="qcurve"/>
      <point x="1354" y="896" type="line"/>
      <point x="1368" y="896"/>
      <point x="1387" y="877"/>
      <point x="1387" y="863" type="qcurve"/>
      <point x="1387" y="-63" type="line"/>
      <point x="1387" y="-76"/>
      <point x="1368" y="-95"/>
      <point x="1354" y="-95" type="qcurve"/>
      <point x="953" y="-95" type="line"/>
      <point x="976" y="-109"/>
      <point x="997" y="-125" type="qcurve"/>
      <point x="906" y="-125" type="line"/>
      <point x="861" y="-101"/>
      <point x="750" y="-74"/>
      <point x="629" y="-74"/>
      <point x="518" y="-101"/>
      <point x="472" y="-125" type="qcurve"/>
    </contour>
  </outline>
</glyph>
<glyph name="Group5" format="2">
  <advance width="1387"/>
  <unicode hex="E636"/>
  <outline>
    <contour>
      <point x="661" y="435" type="line"/>
      <point x="661" y="571" type="line"/>
      <point x="748" y="571" type="line"/>
      <point x="748" y="435" type="line"/>
      <point x="781" y="435" type="line"/>
      <point x="792" y="435"/>
      <point x="807" y="420"/>
      <point x="807" y="400"/>
      <point x="800" y="393" type="qcurve"/>
      <point x="721" y="308" type="line"/>
      <point x="713" y="300"/>
      <point x="690" y="300"/>
      <point x="682" y="308" type="qcurve"/>
      <point x="603" y="393" type="line"/>
      <point x="596" y="400"/>
      <point x="596" y="420"/>
      <point x="611" y="435"/>
      <point x="622" y="435" type="qcurve"/>
    </contour>
    <contour>
      <point x="390" y="-125" type="line"/>
      <point x="411" y="-109"/>
      <point x="434" y="-95" type="qcurve"/>
      <point x="33" y="-95" type="line"/>
      <point x="19" y="-95"/>
      <point x="0" y="-76"/>
      <point x="0" y="-63" type="qcurve"/>
      <point x="0" y="863" type="line"/>
      <point x="0" y="877"/>
      <point x="19" y="896"/>
      <point x="33" y="896" type="qcurve"/>
      <point x="1354" y="896" type="line"/>
      <point x="1368" y="896"/>
      <point x="1387" y="877"/>
      <point x="1387" y="863" type="qcurve"/>
      <point x="1387" y="-63" type="line"/>
      <point x="1387" y="-76"/>
      <point x="1368" y="-95"/>
      <point x="1354" y="-95" type="qcurve"/>
      <point x="953" y="-95" type="line"/>
      <point x="976" y="-109"/>
      <point x="997" y="-125" type="qcurve"/>
      <point x="906" y="-125" type="line"/>
      <point x="861" y="-101"/>
      <point x="750" y="-74"/>
      <point x="629" y="-74"/>
      <point x="518" y="-101"/>
      <point x="472" y="-125" type="qcurve"/>
    </contour>
    <contour>
      <point x="81" y="853" type="line"/>
      <point x="68" y="853"/>
      <point x="49" y="834"/>
      <point x="49" y="820" type="qcurve"/>
      <point x="49" y="56" type="line"/>
      <point x="49" y="43"/>
      <point x="68" y="24"/>
      <point x="81" y="24" type="qcurve"/>
      <point x="1311" y="24" type="line"/>
      <point x="1325" y="24"/>
      <point x="1344" y="43"/>
      <point x="1344" y="56" type="qcurve"/>
      <point x="1344" y="820" type="line"/>
      <point x="1344" y="834"/>
      <point x="1325" y="853"/>
      <point x="1311" y="853" type="qcurve"/>
    </contour>
  </outline>
</glyph>
<glyph name="gjux" format="2">
  <advance width="1390"/>
  <unicode hex="E637"/>
  <outline>
    <contour>
      <point x="391" y="-128" type="line"/>
      <point x="412" y="-111"/>
      <point x="435" y="-98" type="qcurve"/>
      <point x="33" y="-98" type="line"/>
      <point x="19" y="-98"/>
      <point x="0" y="-79"/>
      <point x="0" y="-66" type="qcurve"/>
      <point x="0" y="863" type="line"/>
      <point x="0" y="877"/>
      <point x="19" y="896"/>
      <point x="33" y="896" type="qcurve"/>
      <point x="1358" y="896" type="line"/>
      <point x="1372" y="896"/>
      <point x="1391" y="877"/>
      <point x="1391" y="863" type="qcurve"/>
      <point x="1391" y="-66" type="line"/>
      <point x="1391" y="-79"/>
      <point x="1372" y="-98"/>
      <point x="1358" y="-98" type="qcurve"/>
      <point x="955" y="-98" type="line"/>
      <point x="979" y="-111"/>
      <point x="1000" y="-128" type="qcurve"/>
      <point x="908" y="-128" type="line"/>
      <point x="863" y="-103"/>
      <point x="752" y="-76"/>
      <point x="631" y="-76"/>
      <point x="520" y="-103"/>
      <point x="474" y="-128" type="qcurve"/>
    </contour>
    <contour>
      <point x="81" y="853" type="line"/>
      <point x="68" y="853"/>
      <point x="49" y="833"/>
      <point x="49" y="820" type="qcurve"/>
      <point x="49" y="54" type="line"/>
      <point x="49" y="40"/>
      <point x="68" y="21"/>
      <point x="81" y="21" type="qcurve"/>
      <point x="1315" y="21" type="line"/>
      <point x="1328" y="21"/>
      <point x="1347" y="40"/>
      <point x="1347" y="54" type="qcurve"/>
      <point x="1347" y="820" type="line"/>
      <point x="1347" y="833"/>
      <point x="1328" y="853"/>
      <point x="1315" y="853" type="qcurve"/>
    </contour>
    <contour>
      <point x="835" y="553" type="qcurve"/>
      <point x="842" y="546"/>
      <point x="841" y="525"/>
      <point x="836" y="515" type="qcurve"/>
      <point x="789" y="426"/>
      <point x="770" y="409" type="qcurve"/>
      <point x="757" y="396"/>
      <point x="721" y="396"/>
      <point x="695" y="422"/>
      <point x="695" y="458"/>
      <point x="708" y="470" type="qcurve"/>
      <point x="799" y="552" type="line"/>
      <point x="806" y="559"/>
      <point x="827" y="559"/>
    </contour>
    <contour>
      <point x="706" y="395" type="qcurve"/>
      <point x="716" y="387"/>
      <point x="728" y="384" type="qcurve"/>
      <point x="728" y="374" type="line"/>
      <point x="730" y="347"/>
      <point x="689" y="308"/>
      <point x="661" y="309" type="qcurve"/>
      <point x="645" y="309"/>
      <point x="617" y="321"/>
      <point x="600" y="344"/>
      <point x="592" y="372"/>
      <point x="592" y="388" type="qcurve"/>
      <point x="607" y="377" type="line"/>
      <point x="615" y="372" type="line"/>
      <point x="618" y="371"/>
      <point x="622" y="370" type="qcurve"/>
      <point x="627" y="370"/>
      <point x="629" y="375" type="qcurve"/>
      <point x="632" y="384"/>
      <point x="641" y="397"/>
      <point x="653" y="405"/>
      <point x="667" y="410"/>
      <point x="683" y="412"/>
      <point x="692" y="413" type="qcurve"/>
      <point x="697" y="402"/>
    </contour>
  </outline>
</glyph>
<glyph name="liwu" format="2">
  <advance width="1390"/>
  <unicode hex="E638"/>
  <outline>
    <contour>
      <point x="391" y="-128" type="line"/>
      <point x="412" y="-111"/>
      <point x="435" y="-98" type="qcurve"/>
      <point x="33" y="-98" type="line"/>
      <point x="19" y="-98"/>
      <point x="0" y="-79"/>
      <point x="0" y="-66" type="qcurve"/>
      <point x="0" y="863" type="line"/>
      <point x="0" y="877"/>
      <point x="19" y="896"/>
      <point x="33" y="896" type="qcurve"/>
      <point x="1358" y="896" type="line"/>
      <point x="1372" y="896"/>
      <point x="1391" y="877"/>
      <point x="1391" y="863" type="qcurve"/>
      <point x="1391" y="-66" type="line"/>
      <point x="1391" y="-79"/>
      <point x="1372" y="-98"/>
      <point x="1358" y="-98" type="qcurve"/>
      <point x="955" y="-98" type="line"/>
      <point x="979" y="-111"/>
      <point x="1000" y="-128" type="qcurve"/>
      <point x="908" y="-128" type="line"/>
      <point x="863" y="-103"/>
      <point x="752" y="-76"/>
      <point x="631" y="-76"/>
      <point x="520" y="-103"/>
      <point x="474" y="-128" type="qcurve"/>
    </contour>
    <contour>
      <point x="81" y="853" type="line"/>
      <point x="68" y="853"/>
      <point x="49" y="833"/>
      <point x="49" y="820" type="qcurve"/>
      <point x="49" y="54" type="line"/>
      <point x="49" y="40"/>
      <point x="68" y="21"/>
      <point x="81" y="21" type="qcurve"/>
      <point x="1315" y="21" type="line"/>
      <point x="1328" y="21"/>
      <point x="1347" y="40"/>
      <point x="1347" y="54" type="qcurve"/>
      <point x="1347" y="820" type="line"/>
      <point x="1347" y="833"/>
      <point x="1328" y="853"/>
      <point x="1315" y="853" type="qcurve"/>
    </contour>
    <contour>
      <point x="679" y="482" type="line"/>
      <point x="679" y="489"/>
      <point x="674" y="494" type="qcurve"/>
      <point x="682" y="504"/>
      <point x="710" y="516"/>
      <point x="734" y="515"/>
      <point x="735" y="509" type="qcurve"/>
      <point x="738" y="499"/>
      <point x="739" y="463"/>
      <point x="734" y="454"/>
      <point x="691" y="459"/>
      <point x="676" y="469" type="qcurve"/>
      <point x="679" y="474"/>
      <point x="679" y="480" type="qcurve"/>
      <point x="699" y="493"/>
      <point x="723" y="489" type="qcurve"/>
      <point x="714" y="492"/>
      <point x="702" y="490" type="qcurve"/>
      <point x="694" y="489"/>
      <point x="686" y="485" type="qcurve"/>
    </contour>
    <contour>
      <point x="722" y="391" type="qcurve"/>
      <point x="708" y="395"/>
      <point x="691" y="420" type="qcurve"/>
      <point x="679" y="437"/>
      <point x="668" y="460" type="qcurve"/>
      <point x="670" y="461" type="line"/>
      <point x="687" y="451"/>
      <point x="706" y="449" type="qcurve"/>
      <point x="727" y="429"/>
      <point x="733" y="428" type="qcurve"/>
      <point x="729" y="420"/>
      <point x="722" y="397"/>
    </contour>
    <contour>
      <point x="590" y="509" type="qcurve"/>
      <point x="592" y="515"/>
      <point x="616" y="516"/>
      <point x="644" y="504"/>
      <point x="652" y="494" type="qcurve"/>
      <point x="647" y="489"/>
      <point x="646" y="482" type="qcurve"/>
      <point x="646" y="482" type="line"/>
      <point x="641" y="485"/>
      <point x="632" y="488" type="qcurve"/>
      <point x="616" y="493"/>
      <point x="602" y="489" type="qcurve"/>
      <point x="626" y="493"/>
      <point x="646" y="480" type="qcurve"/>
      <point x="646" y="474"/>
      <point x="650" y="469" type="qcurve"/>
      <point x="634" y="459"/>
      <point x="592" y="454"/>
      <point x="586" y="463"/>
      <point x="587" y="499"/>
    </contour>
    <contour>
      <point x="614" y="449" type="qcurve"/>
      <point x="633" y="451"/>
      <point x="650" y="461" type="qcurve"/>
      <point x="652" y="460" type="line"/>
      <point x="641" y="437"/>
      <point x="629" y="420" type="qcurve"/>
      <point x="612" y="395"/>
      <point x="598" y="391" type="qcurve"/>
      <point x="598" y="397"/>
      <point x="591" y="420"/>
      <point x="587" y="428" type="qcurve"/>
      <point x="592" y="429"/>
    </contour>
    <contour>
      <point x="674" y="480" type="qcurve"/>
      <point x="674" y="475"/>
      <point x="668" y="467"/>
      <point x="663" y="467" type="qcurve"/>
      <point x="657" y="467" type="line"/>
      <point x="653" y="468"/>
      <point x="646" y="476"/>
      <point x="646" y="485"/>
      <point x="653" y="493"/>
      <point x="657" y="494" type="qcurve"/>
      <point x="663" y="494" type="line"/>
      <point x="668" y="493"/>
      <point x="674" y="485"/>
    </contour>
    <contour>
      <point x="581" y="507" type="qcurve"/>
      <point x="579" y="498"/>
      <point x="578" y="489" type="qcurve"/>
      <point x="576" y="489" type="line"/>
      <point x="576" y="525" type="line"/>
      <point x="576" y="539"/>
      <point x="596" y="559"/>
      <point x="610" y="559" type="qcurve"/>
      <point x="646" y="559" type="line"/>
      <point x="646" y="507" type="line"/>
      <point x="628" y="520"/>
      <point x="605" y="521" type="qcurve"/>
      <point x="598" y="521"/>
      <point x="583" y="515"/>
    </contour>
    <contour>
      <point x="793" y="559" type="line"/>
      <point x="807" y="559"/>
      <point x="826" y="539"/>
      <point x="826" y="525" type="qcurve"/>
      <point x="826" y="489" type="line"/>
      <point x="746" y="489" type="line"/>
      <point x="745" y="498"/>
      <point x="741" y="515"/>
      <point x="726" y="521"/>
      <point x="719" y="521" type="qcurve"/>
      <point x="697" y="520"/>
      <point x="679" y="507" type="qcurve"/>
      <point x="679" y="559" type="line"/>
    </contour>
    <contour>
      <point x="744" y="453" type="qcurve"/>
      <point x="746" y="457"/>
      <point x="746" y="461" type="qcurve"/>
      <point x="826" y="461" type="line"/>
      <point x="826" y="343" type="line"/>
      <point x="826" y="329"/>
      <point x="806" y="310"/>
      <point x="792" y="309" type="qcurve"/>
      <point x="679" y="309" type="line"/>
      <point x="679" y="431" type="line"/>
      <point x="687" y="419" type="line"/>
      <point x="696" y="405"/>
      <point x="703" y="398" type="qcurve"/>
      <point x="713" y="389"/>
      <point x="723" y="385" type="qcurve"/>
      <point x="735" y="382" type="line"/>
      <point x="733" y="395" type="line"/>
      <point x="734" y="403"/>
      <point x="739" y="420"/>
      <point x="744" y="428" type="qcurve"/>
      <point x="750" y="439" type="line"/>
      <point x="737" y="441" type="line"/>
      <point x="733" y="443"/>
      <point x="730" y="446" type="qcurve"/>
      <point x="734" y="447" type="line"/>
      <point x="740" y="448"/>
    </contour>
    <contour>
      <point x="585" y="441" type="line"/>
      <point x="576" y="440" type="line"/>
      <point x="576" y="461" type="line"/>
      <point x="578" y="461" type="line"/>
      <point x="578" y="457"/>
      <point x="583" y="448"/>
      <point x="589" y="447" type="qcurve"/>
      <point x="592" y="446" type="line"/>
      <point x="586" y="442" type="line"/>
    </contour>
    <contour>
      <point x="602" y="385" type="line"/>
      <point x="612" y="388"/>
      <point x="622" y="397" type="qcurve"/>
      <point x="629" y="404"/>
      <point x="639" y="417" type="qcurve"/>
      <point x="647" y="430" type="line"/>
      <point x="647" y="309" type="line"/>
      <point x="610" y="309" type="line"/>
      <point x="596" y="309"/>
      <point x="576" y="329"/>
      <point x="576" y="343" type="qcurve"/>
      <point x="576" y="434" type="line"/>
      <point x="580" y="427" type="line"/>
      <point x="585" y="418"/>
      <point x="590" y="402"/>
      <point x="591" y="394" type="qcurve"/>
      <point x="590" y="381" type="line"/>
    </contour>
  </outline>
</glyph>
<glyph name="liwuhe" format="2">
  <advance width="1390"/>
  <unicode hex="E639"/>
  <outline>
    <contour>
      <point x="391" y="-128" type="line"/>
      <point x="412" y="-111"/>
      <point x="435" y="-98" type="qcurve"/>
      <point x="33" y="-98" type="line"/>
      <point x="19" y="-98"/>
      <point x="0" y="-79"/>
      <point x="0" y="-66" type="qcurve"/>
      <point x="0" y="863" type="line"/>
      <point x="0" y="877"/>
      <point x="19" y="896"/>
      <point x="33" y="896" type="qcurve"/>
      <point x="1358" y="896" type="line"/>
      <point x="1372" y="896"/>
      <point x="1391" y="877"/>
      <point x="1391" y="863" type="qcurve"/>
      <point x="1391" y="-66" type="line"/>
      <point x="1391" y="-79"/>
      <point x="1372" y="-98"/>
      <point x="1358" y="-98" type="qcurve"/>
      <point x="955" y="-98" type="line"/>
      <point x="979" y="-111"/>
      <point x="1000" y="-128" type="qcurve"/>
      <point x="908" y="-128" type="line"/>
      <point x="863" y="-103"/>
      <point x="752" y="-76"/>
      <point x="631" y="-76"/>
      <point x="520" y="-103"/>
      <point x="474" y="-128" type="qcurve"/>
    </contour>
    <contour>
      <point x="81" y="853" type="line"/>
      <point x="68" y="853"/>
      <point x="49" y="833"/>
      <point x="49" y="820" type="qcurve"/>
      <point x="49" y="54" type="line"/>
      <point x="49" y="40"/>
      <point x="68" y="21"/>
      <point x="81" y="21" type="qcurve"/>
      <point x="1315" y="21" type="line"/>
      <point x="1328" y="21"/>
      <point x="1347" y="40"/>
      <point x="1347" y="54" type="qcurve"/>
      <point x="1347" y="820" type="line"/>
      <point x="1347" y="833"/>
      <point x="1328" y="853"/>
      <point x="1315" y="853" type="qcurve"/>
    </contour>
    <contour>
      <point x="679" y="514" type="line"/>
      <point x="679" y="454" type="line"/>
      <point x="554" y="454" type="line"/>
      <point x="554" y="502" type="line"/>
      <point x="554" y="508"/>
      <point x="562" y="516"/>
      <point x="568" y="516" type="qcurve"/>
      <point x="625" y="516" type="line"/>
      <point x="598" y="521"/>
      <point x="598" y="537" type="qcurve"/>
      <point x="597" y="550"/>
      <point x="621" y="573"/>
      <point x="653" y="566"/>
      <point x="668" y="553" type="qcurve"/>
      <point x="678" y="545"/>
      <point x="691" y="529" type="qcurve"/>
      <point x="704" y="546"/>
      <point x="715" y="554" type="qcurve"/>
      <point x="731" y="568"/>
      <point x="763" y="572"/>
      <point x="786" y="549"/>
      <point x="784" y="538" type="qcurve"/>
      <point x="782" y="521"/>
      <point x="756" y="516" type="qcurve"/>
      <point x="812" y="516" type="line"/>
      <point x="818" y="516"/>
      <point x="826" y="508"/>
      <point x="826" y="502" type="qcurve"/>
      <point x="826" y="454" type="line"/>
      <point x="701" y="454" type="line"/>
      <point x="701" y="514" type="line"/>
    </contour>
    <contour>
      <point x="639" y="557" type="qcurve"/>
      <point x="624" y="563"/>
      <point x="616" y="548" type="qcurve"/>
      <point x="610" y="538"/>
      <point x="614" y="533" type="qcurve"/>
      <point x="622" y="525"/>
      <point x="642" y="524" type="qcurve"/>
      <point x="657" y="522"/>
      <point x="677" y="525" type="qcurve"/>
      <point x="657" y="550"/>
    </contour>
    <contour>
      <point x="767" y="533" type="qcurve"/>
      <point x="771" y="538"/>
      <point x="765" y="553"/>
      <point x="750" y="561"/>
      <point x="742" y="557" type="qcurve"/>
      <point x="720" y="545"/>
      <point x="704" y="525" type="qcurve"/>
      <point x="717" y="524"/>
      <point x="731" y="524" type="qcurve"/>
      <point x="731" y="524" type="line"/>
      <point x="761" y="525"/>
    </contour>
    <contour>
      <point x="680" y="309" type="line"/>
      <point x="578" y="309" type="line"/>
      <point x="573" y="309"/>
      <point x="566" y="317"/>
      <point x="566" y="322" type="qcurve"/>
      <point x="566" y="444" type="line"/>
      <point x="680" y="444" type="line"/>
    </contour>
    <contour>
      <point x="814" y="322" type="line"/>
      <point x="814" y="317"/>
      <point x="807" y="309"/>
      <point x="802" y="309" type="qcurve"/>
      <point x="700" y="309" type="line"/>
      <point x="700" y="444" type="line"/>
      <point x="814" y="444" type="line"/>
    </contour>
  </outline>
</glyph>
<glyph name="GroupCopy6" format="2">
  <advance width="1387"/>
  <unicode hex="E63A"/>
  <outline>
    <contour>
      <point x="390" y="-125" type="line"/>
      <point x="411" y="-109"/>
      <point x="434" y="-95" type="qcurve"/>
      <point x="33" y="-95" type="line"/>
      <point x="19" y="-95"/>
      <point x="0" y="-76"/>
      <point x="0" y="-63" type="qcurve"/>
      <point x="0" y="863" type="line"/>
      <point x="0" y="877"/>
      <point x="19" y="896"/>
      <point x="33" y="896" type="qcurve"/>
      <point x="1354" y="896" type="line"/>
      <point x="1368" y="896"/>
      <point x="1387" y="877"/>
      <point x="1387" y="863" type="qcurve"/>
      <point x="1387" y="-63" type="line"/>
      <point x="1387" y="-76"/>
      <point x="1368" y="-95"/>
      <point x="1354" y="-95" type="qcurve"/>
      <point x="953" y="-95" type="line"/>
      <point x="976" y="-109"/>
      <point x="997" y="-125" type="qcurve"/>
      <point x="906" y="-125" type="line"/>
      <point x="861" y="-101"/>
      <point x="750" y="-74"/>
      <point x="629" y="-74"/>
      <point x="518" y="-101"/>
      <point x="472" y="-125" type="qcurve"/>
    </contour>
    <contour>
      <point x="81" y="853" type="line"/>
      <point x="68" y="853"/>
      <point x="49" y="834"/>
      <point x="49" y="820" type="qcurve"/>
      <point x="49" y="56" type="line"/>
      <point x="49" y="43"/>
      <point x="68" y="24"/>
      <point x="81" y="24" type="qcurve"/>
      <point x="1311" y="24" type="line"/>
      <point x="1325" y="24"/>
      <point x="1344" y="43"/>
      <point x="1344" y="56" type="qcurve"/>
      <point x="1344" y="820" type="line"/>
      <point x="1344" y="834"/>
      <point x="1325" y="853"/>
      <point x="1311" y="853" type="qcurve"/>
    </contour>
    <contour>
      <point x="776" y="444" type="line"/>
      <point x="815" y="415" type="line"/>
      <point x="830" y="404"/>
      <point x="830" y="365"/>
      <point x="814" y="354" type="qcurve"/>
      <point x="713" y="282" type="line"/>
      <point x="703" y="275"/>
      <point x="679" y="275"/>
      <point x="669" y="283" type="qcurve"/>
      <point x="574" y="354" type="line"/>
      <point x="559" y="365"/>
      <point x="559" y="403"/>
      <point x="574" y="414" type="qcurve"/>
      <point x="612" y="443" type="line"/>
      <point x="669" y="400" type="line"/>
      <point x="679" y="393"/>
      <point x="703" y="393"/>
      <point x="713" y="400" type="qcurve"/>
    </contour>
    <contour>
      <point x="719" y="617" type="qcurve"/>
      <point x="816" y="545" type="line"/>
      <point x="832" y="533"/>
      <point x="832" y="495"/>
      <point x="816" y="484" type="qcurve"/>
      <point x="715" y="412" type="line"/>
      <point x="705" y="405"/>
      <point x="680" y="405"/>
      <point x="670" y="412" type="qcurve"/>
      <point x="576" y="483" type="line"/>
      <point x="561" y="495"/>
      <point x="561" y="533"/>
      <point x="576" y="544" type="qcurve"/>
      <point x="674" y="617" type="line"/>
      <point x="684" y="625"/>
      <point x="709" y="625"/>
    </contour>
  </outline>
</glyph>
<glyph name="qiepian21x" format="2">
  <advance width="1024"/>
  <unicode hex="E63D"/>
  <outline>
    <contour>
      <point x="512" y="788" type="qcurve"/>
      <point x="646" y="788"/>
      <point x="738" y="761" type="qcurve"/>
      <point x="843" y="731"/>
      <point x="897" y="664" type="qcurve"/>
      <point x="958" y="590"/>
      <point x="958" y="471" type="qcurve"/>
      <point x="958" y="346"/>
      <point x="856" y="131"/>
      <point x="765" y="68" type="qcurve"/>
      <point x="669" y="2"/>
      <point x="549" y="2" type="qcurve"/>
      <point x="423" y="2"/>
      <point x="201" y="104"/>
      <point x="136" y="193" type="qcurve"/>
      <point x="66" y="289"/>
      <point x="66" y="530"/>
      <point x="127" y="618" type="qcurve"/>
      <point x="183" y="701"/>
      <point x="286" y="745" type="qcurve"/>
      <point x="385" y="788"/>
    </contour>
    <contour>
      <point x="713" y="531" type="qcurve"/>
      <point x="593" y="520" type="line"/>
      <point x="585" y="519"/>
      <point x="573" y="509"/>
      <point x="568" y="495"/>
      <point x="571" y="479"/>
      <point x="577" y="474" type="qcurve"/>
      <point x="612" y="438" type="line"/>
      <point x="498" y="324" type="line"/>
      <point x="422" y="400" type="line"/>
      <point x="415" y="408"/>
      <point x="392" y="408"/>
      <point x="385" y="400" type="qcurve"/>
      <point x="290" y="305" type="line"/>
      <point x="282" y="297"/>
      <point x="282" y="275"/>
      <point x="298" y="260"/>
      <point x="320" y="260"/>
      <point x="328" y="267" type="qcurve"/>
      <point x="403" y="343" type="line"/>
      <point x="479" y="268" type="line"/>
      <point x="487" y="260"/>
      <point x="509" y="259"/>
      <point x="517" y="267" type="qcurve"/>
      <point x="650" y="400" type="line"/>
      <point x="685" y="365" type="line"/>
      <point x="691" y="359"/>
      <point x="706" y="356"/>
      <point x="721" y="361"/>
      <point x="730" y="374"/>
      <point x="731" y="382" type="qcurve"/>
      <point x="742" y="501" type="line"/>
      <point x="743" y="514"/>
      <point x="725" y="532"/>
    </contour>
  </outline>
</glyph>
<glyph name="qiepian3beifen1x" format="2">
  <advance width="1024"/>
  <unicode hex="E63E"/>
  <outline>
    <contour>
      <point x="512" y="788" type="qcurve"/>
      <point x="646" y="788"/>
      <point x="738" y="761" type="qcurve"/>
      <point x="843" y="731"/>
      <point x="897" y="664" type="qcurve"/>
      <point x="958" y="590"/>
      <point x="958" y="471" type="qcurve"/>
      <point x="958" y="346"/>
      <point x="856" y="131"/>
      <point x="765" y="68" type="qcurve"/>
      <point x="669" y="2"/>
      <point x="549" y="2" type="qcurve"/>
      <point x="423" y="2"/>
      <point x="201" y="104"/>
      <point x="136" y="193" type="qcurve"/>
      <point x="66" y="289"/>
      <point x="66" y="530"/>
      <point x="127" y="618" type="qcurve"/>
      <point x="183" y="701"/>
      <point x="286" y="745" type="qcurve"/>
      <point x="385" y="788"/>
    </contour>
    <contour>
      <point x="578" y="544" type="qcurve"/>
      <point x="567" y="533"/>
      <point x="560" y="502"/>
      <point x="564" y="487" type="qcurve"/>
      <point x="561" y="485"/>
      <point x="558" y="482" type="qcurve"/>
      <point x="503" y="427" type="line"/>
      <point x="431" y="499" type="line"/>
      <point x="441" y="509" type="line"/>
      <point x="390" y="540" type="line"/>
      <point x="369" y="520" type="line"/>
      <point x="400" y="468" type="line"/>
      <point x="411" y="479" type="line"/>
      <point x="482" y="407" type="line"/>
      <point x="419" y="343" type="line"/>
      <point x="404" y="347"/>
      <point x="374" y="339"/>
      <point x="352" y="317"/>
      <point x="344" y="287"/>
      <point x="348" y="272" type="qcurve"/>
      <point x="373" y="297" type="line"/>
      <point x="382" y="306"/>
      <point x="406" y="306"/>
      <point x="423" y="289"/>
      <point x="423" y="265"/>
      <point x="414" y="256" type="qcurve"/>
      <point x="389" y="231" type="line"/>
      <point x="404" y="227"/>
      <point x="434" y="235"/>
      <point x="456" y="257"/>
      <point x="464" y="287"/>
      <point x="460" y="302" type="qcurve"/>
      <point x="524" y="366" type="line"/>
      <point x="565" y="324" type="line"/>
      <point x="556" y="316"/>
      <point x="556" y="292"/>
      <point x="565" y="283" type="qcurve"/>
      <point x="606" y="242" type="line"/>
      <point x="614" y="234"/>
      <point x="638" y="234"/>
      <point x="647" y="242" type="qcurve"/>
      <point x="667" y="263" type="line"/>
      <point x="676" y="271"/>
      <point x="676" y="295"/>
      <point x="667" y="304" type="qcurve"/>
      <point x="626" y="345" type="line"/>
      <point x="618" y="354"/>
      <point x="594" y="354"/>
      <point x="585" y="345" type="qcurve"/>
      <point x="544" y="386" type="line"/>
      <point x="599" y="441" type="line"/>
      <point x="602" y="444"/>
      <point x="604" y="447" type="qcurve"/>
      <point x="619" y="443"/>
      <point x="649" y="450"/>
      <point x="672" y="472"/>
      <point x="680" y="503"/>
      <point x="676" y="518" type="qcurve"/>
      <point x="651" y="493" type="line"/>
      <point x="642" y="484"/>
      <point x="618" y="484"/>
      <point x="601" y="501"/>
      <point x="601" y="525"/>
      <point x="610" y="534" type="qcurve"/>
      <point x="635" y="559" type="line"/>
      <point x="620" y="563"/>
      <point x="589" y="555"/>
    </contour>
  </outline>
</glyph>
<glyph name="qiepian31x" format="2">
  <advance width="1024"/>
  <unicode hex="E63F"/>
  <outline>
    <contour>
      <point x="512" y="788" type="qcurve"/>
      <point x="646" y="788"/>
      <point x="738" y="761" type="qcurve"/>
      <point x="843" y="731"/>
      <point x="897" y="664" type="qcurve"/>
      <point x="958" y="590"/>
      <point x="958" y="471" type="qcurve"/>
      <point x="958" y="346"/>
      <point x="856" y="131"/>
      <point x="765" y="68" type="qcurve"/>
      <point x="669" y="2"/>
      <point x="549" y="2" type="qcurve"/>
      <point x="423" y="2"/>
      <point x="201" y="104"/>
      <point x="136" y="193" type="qcurve"/>
      <point x="66" y="289"/>
      <point x="66" y="530"/>
      <point x="127" y="618" type="qcurve"/>
      <point x="183" y="701"/>
      <point x="286" y="745" type="qcurve"/>
      <point x="385" y="788"/>
    </contour>
    <contour>
      <point x="672" y="555" type="qcurve"/>
      <point x="660" y="566"/>
      <point x="614" y="550"/>
      <point x="596" y="532" type="qcurve"/>
      <point x="558" y="494" type="line"/>
      <point x="401" y="532" type="line"/>
      <point x="397" y="533"/>
      <point x="394" y="530" type="qcurve"/>
      <point x="363" y="500" type="line"/>
      <point x="361" y="497"/>
      <point x="362" y="490"/>
      <point x="365" y="488" type="qcurve"/>
      <point x="485" y="422" type="line"/>
      <point x="424" y="360" type="line"/>
      <point x="376" y="373" type="line"/>
      <point x="373" y="373"/>
      <point x="371" y="371" type="qcurve"/>
      <point x="348" y="348" type="line"/>
      <point x="346" y="345"/>
      <point x="347" y="338"/>
      <point x="349" y="337" type="qcurve"/>
      <point x="409" y="292" type="line"/>
      <point x="454" y="232" type="line"/>
      <point x="456" y="229"/>
      <point x="459" y="229" type="qcurve"/>
      <point x="460" y="229" type="line"/>
      <point x="463" y="229"/>
      <point x="465" y="231" type="qcurve"/>
      <point x="488" y="254" type="line"/>
      <point x="491" y="257"/>
      <point x="490" y="261" type="qcurve"/>
      <point x="477" y="307" type="line"/>
      <point x="539" y="369" type="line"/>
      <point x="605" y="248" type="line"/>
      <point x="606" y="245"/>
      <point x="610" y="245" type="qcurve"/>
      <point x="611" y="244" type="line"/>
      <point x="614" y="244"/>
      <point x="616" y="246" type="qcurve"/>
      <point x="646" y="268" type="line"/>
      <point x="650" y="272"/>
      <point x="649" y="276" type="qcurve"/>
      <point x="611" y="441" type="line"/>
      <point x="649" y="479" type="line"/>
      <point x="667" y="497"/>
      <point x="682" y="543"/>
    </contour>
  </outline>
</glyph>
<glyph name="store101" format="2">
  <advance width="1024"/>
  <unicode hex="E640"/>
  <outline>
    <contour>
      <point x="776" y="595" type="qcurve"/>
      <point x="776" y="595"/>
      <point x="776" y="596" type="qcurve"/>
      <point x="751" y="621" type="line"/>
      <point x="740" y="611" type="line"/>
      <point x="751" y="621" type="line"/>
      <point x="725" y="646" type="line"/>
      <point x="715" y="656"/>
      <point x="685" y="656"/>
      <point x="675" y="646" type="qcurve"/>
      <point x="649" y="621" type="line"/>
      <point x="751" y="519" type="line"/>
      <point x="776" y="545" type="line"/>
      <point x="786" y="555"/>
      <point x="786" y="585"/>
    </contour>
    <contour>
      <point x="394" y="173" type="line"/>
      <point x="302" y="265" type="line"/>
      <point x="624" y="588" type="line"/>
      <point x="717" y="495" type="line"/>
    </contour>
    <contour>
      <point x="368" y="157" type="line"/>
      <point x="366" y="162"/>
      <point x="358" y="167"/>
      <point x="353" y="166" type="qcurve"/>
      <point x="296" y="224" type="line"/>
      <point x="298" y="229"/>
      <point x="292" y="238"/>
      <point x="287" y="239" type="qcurve"/>
      <point x="284" y="240" type="line"/>
      <point x="279" y="241"/>
      <point x="270" y="236"/>
      <point x="268" y="231" type="qcurve"/>
      <point x="246" y="146" type="line"/>
      <point x="239" y="120"/>
      <point x="251" y="108"/>
      <point x="276" y="115" type="qcurve"/>
      <point x="360" y="138" type="line"/>
      <point x="365" y="140"/>
      <point x="370" y="149"/>
      <point x="369" y="154" type="qcurve"/>
    </contour>
  </outline>
</glyph>
<glyph name="qiepian1x" format="2">
  <advance width="1024"/>
  <unicode hex="E641"/>
  <outline>
    <contour>
      <point x="506" y="788" type="qcurve"/>
      <point x="641" y="788"/>
      <point x="733" y="761" type="qcurve"/>
      <point x="837" y="731"/>
      <point x="892" y="664" type="qcurve"/>
      <point x="952" y="590"/>
      <point x="952" y="471" type="qcurve"/>
      <point x="952" y="346"/>
      <point x="850" y="131"/>
      <point x="760" y="68" type="qcurve"/>
      <point x="664" y="2"/>
      <point x="543" y="2" type="qcurve"/>
      <point x="418" y="2"/>
      <point x="196" y="104"/>
      <point x="131" y="193" type="qcurve"/>
      <point x="61" y="289"/>
      <point x="61" y="530"/>
      <point x="121" y="618" type="qcurve"/>
      <point x="178" y="701"/>
      <point x="280" y="745" type="qcurve"/>
      <point x="380" y="788"/>
    </contour>
    <contour>
      <point x="435" y="467" type="qcurve"/>
      <point x="432" y="467" type="line"/>
      <point x="430" y="467" type="line"/>
      <point x="405" y="463"/>
      <point x="361" y="435"/>
      <point x="333" y="391"/>
      <point x="324" y="339"/>
      <point x="330" y="314" type="qcurve"/>
      <point x="341" y="273"/>
      <point x="408" y="221"/>
      <point x="449" y="221" type="qcurve"/>
      <point x="454" y="221" type="line"/>
      <point x="480" y="222"/>
      <point x="527" y="245"/>
      <point x="561" y="285"/>
      <point x="575" y="335"/>
      <point x="572" y="361" type="qcurve"/>
      <point x="571" y="370"/>
      <point x="565" y="377" type="qcurve"/>
      <point x="559" y="386"/>
      <point x="546" y="386" type="qcurve"/>
      <point x="541" y="385" type="line"/>
      <point x="531" y="384"/>
      <point x="519" y="368"/>
      <point x="520" y="356" type="qcurve"/>
      <point x="520" y="355" type="line"/>
      <point x="524" y="326"/>
      <point x="488" y="277"/>
      <point x="458" y="274" type="qcurve"/>
      <point x="449" y="274" type="line"/>
      <point x="423" y="274"/>
      <point x="384" y="307"/>
      <point x="380" y="333" type="qcurve"/>
      <point x="375" y="362"/>
      <point x="392" y="386" type="qcurve"/>
      <point x="400" y="398"/>
      <point x="425" y="413"/>
      <point x="439" y="415" type="qcurve"/>
      <point x="442" y="415"/>
      <point x="446" y="417" type="qcurve"/>
      <point x="453" y="419"/>
      <point x="457" y="425" type="qcurve"/>
      <point x="464" y="434"/>
      <point x="462" y="446" type="qcurve"/>
      <point x="461" y="456"/>
      <point x="447" y="467"/>
    </contour>
    <contour>
      <point x="681" y="561" type="qcurve"/>
      <point x="667" y="571"/>
      <point x="648" y="569" type="qcurve"/>
      <point x="623" y="566"/>
      <point x="591" y="542" type="qcurve"/>
      <point x="543" y="506"/>
      <point x="495" y="437" type="qcurve"/>
      <point x="468" y="398"/>
      <point x="455" y="371" type="qcurve"/>
      <point x="451" y="364" type="line"/>
      <point x="465" y="356" type="line"/>
      <point x="468" y="363" type="line"/>
      <point x="469" y="365"/>
      <point x="478" y="380" type="qcurve"/>
      <point x="489" y="399"/>
      <point x="502" y="419" type="qcurve"/>
      <point x="505" y="418" type="line"/>
      <point x="554" y="398"/>
      <point x="590" y="417" type="qcurve"/>
      <point x="623" y="435"/>
      <point x="638" y="480" type="qcurve"/>
      <point x="657" y="484"/>
      <point x="683" y="511"/>
      <point x="687" y="527" type="qcurve"/>
      <point x="694" y="552"/>
    </contour>
  </outline>
</glyph>
<glyph name="zhuyi" format="2">
  <advance width="1024"/>
  <unicode hex="E642"/>
  <outline>
    <contour>
      <point x="512" y="726" type="qcurve"/>
      <point x="419" y="726"/>
      <point x="340" y="679" type="qcurve"/>
      <point x="262" y="634"/>
      <point x="217" y="556" type="qcurve"/>
      <point x="170" y="477"/>
      <point x="170" y="291"/>
      <point x="217" y="212" type="qcurve"/>
      <point x="262" y="134"/>
      <point x="340" y="89" type="qcurve"/>
      <point x="419" y="42"/>
      <point x="605" y="42"/>
      <point x="684" y="89" type="qcurve"/>
      <point x="762" y="134"/>
      <point x="807" y="212" type="qcurve"/>
      <point x="854" y="291"/>
      <point x="854" y="477"/>
      <point x="807" y="556" type="qcurve"/>
      <point x="762" y="634"/>
      <point x="684" y="679" type="qcurve"/>
      <point x="605" y="726"/>
    </contour>
    <contour>
      <point x="512" y="195" type="qcurve"/>
      <point x="496" y="195"/>
      <point x="474" y="217"/>
      <point x="474" y="248"/>
      <point x="496" y="270"/>
      <point x="528" y="270"/>
      <point x="550" y="248"/>
      <point x="550" y="217"/>
      <point x="528" y="195"/>
    </contour>
    <contour>
      <point x="531" y="348" type="line"/>
      <point x="531" y="333"/>
      <point x="520" y="310"/>
      <point x="504" y="310"/>
      <point x="493" y="333"/>
      <point x="493" y="348" type="qcurve"/>
      <point x="474" y="517" type="line"/>
      <point x="474" y="532"/>
      <point x="496" y="554"/>
      <point x="528" y="554"/>
      <point x="550" y="532"/>
      <point x="550" y="517" type="qcurve"/>
    </contour>
  </outline>
</glyph>
<glyph name="jianpan" format="2">
  <advance width="1024"/>
  <unicode hex="E643"/>
  <outline>
    <contour>
      <point x="520" y="730" type="qcurve"/>
      <point x="703" y="730"/>
      <point x="799" y="672" type="qcurve"/>
      <point x="913" y="604"/>
      <point x="913" y="451" type="qcurve"/>
      <point x="913" y="341"/>
      <point x="823" y="151"/>
      <point x="743" y="97" type="qcurve"/>
      <point x="659" y="38"/>
      <point x="553" y="38" type="qcurve"/>
      <point x="442" y="38"/>
      <point x="247" y="128"/>
      <point x="189" y="206" type="qcurve"/>
      <point x="128" y="291"/>
      <point x="128" y="503"/>
      <point x="181" y="580" type="qcurve"/>
      <point x="231" y="653"/>
      <point x="321" y="692" type="qcurve"/>
      <point x="409" y="730"/>
    </contour>
    <contour>
      <point x="646" y="294" type="qcurve"/>
      <point x="416" y="294" type="line"/>
      <point x="403" y="294"/>
      <point x="384" y="276"/>
      <point x="384" y="249"/>
      <point x="403" y="230"/>
      <point x="416" y="230" type="qcurve"/>
      <point x="646" y="230" type="line"/>
      <point x="660" y="230"/>
      <point x="678" y="249"/>
      <point x="678" y="276"/>
      <point x="660" y="294"/>
    </contour>
    <contour>
      <point x="442" y="435" type="qcurve"/>
      <point x="423" y="435"/>
      <point x="397" y="409"/>
      <point x="397" y="372"/>
      <point x="423" y="346"/>
      <point x="460" y="346"/>
      <point x="486" y="372"/>
      <point x="486" y="409"/>
      <point x="460" y="435"/>
    </contour>
    <contour>
      <point x="288" y="435" type="qcurve"/>
      <point x="269" y="435"/>
      <point x="243" y="409"/>
      <point x="243" y="372"/>
      <point x="269" y="346"/>
      <point x="307" y="346"/>
      <point x="333" y="372"/>
      <point x="333" y="409"/>
      <point x="307" y="435"/>
    </contour>
    <contour>
      <point x="582" y="435" type="qcurve"/>
      <point x="564" y="435"/>
      <point x="538" y="409"/>
      <point x="538" y="372"/>
      <point x="564" y="346"/>
      <point x="601" y="346"/>
      <point x="627" y="372"/>
      <point x="627" y="409"/>
      <point x="601" y="435"/>
    </contour>
    <contour>
      <point x="723" y="435" type="qcurve"/>
      <point x="705" y="435"/>
      <point x="678" y="409"/>
      <point x="678" y="372"/>
      <point x="705" y="346"/>
      <point x="742" y="346"/>
      <point x="768" y="372"/>
      <point x="768" y="409"/>
      <point x="742" y="435"/>
    </contour>
    <contour>
      <point x="339" y="550" type="qcurve"/>
      <point x="321" y="550"/>
      <point x="294" y="524"/>
      <point x="294" y="487"/>
      <point x="321" y="461"/>
      <point x="358" y="461"/>
      <point x="384" y="487"/>
      <point x="384" y="524"/>
      <point x="358" y="550"/>
    </contour>
    <contour>
      <point x="480" y="550" type="qcurve"/>
      <point x="461" y="550"/>
      <point x="435" y="524"/>
      <point x="435" y="487"/>
      <point x="461" y="461"/>
      <point x="499" y="461"/>
      <point x="525" y="487"/>
      <point x="525" y="524"/>
      <point x="499" y="550"/>
    </contour>
    <contour>
      <point x="621" y="550" type="qcurve"/>
      <point x="602" y="550"/>
      <point x="576" y="524"/>
      <point x="576" y="487"/>
      <point x="602" y="461"/>
      <point x="639" y="461"/>
      <point x="666" y="487"/>
      <point x="666" y="524"/>
      <point x="639" y="550"/>
    </contour>
    <contour>
      <point x="774" y="550" type="qcurve"/>
      <point x="756" y="550"/>
      <point x="730" y="524"/>
      <point x="730" y="487"/>
      <point x="756" y="461"/>
      <point x="793" y="461"/>
      <point x="819" y="487"/>
      <point x="819" y="524"/>
      <point x="793" y="550"/>
    </contour>
  </outline>
</glyph>
<glyph name="ping" format="2">
  <advance width="1024"/>
  <unicode hex="E644"/>
  <outline>
    <contour>
      <point x="750" y="356" type="qcurve"/>
      <point x="749" y="425"/>
      <point x="794" y="480" type="qcurve"/>
      <point x="817" y="508"/>
      <point x="846" y="526" type="qcurve"/>
      <point x="847" y="527" type="line"/>
      <point x="813" y="576"/>
      <point x="756" y="599" type="qcurve"/>
      <point x="721" y="614"/>
      <point x="683" y="615" type="qcurve"/>
      <point x="655" y="618"/>
      <point x="621" y="609" type="qcurve"/>
      <point x="601" y="604"/>
      <point x="565" y="590" type="qcurve"/>
      <point x="544" y="582"/>
      <point x="535" y="579" type="qcurve"/>
      <point x="521" y="574"/>
      <point x="501" y="574"/>
      <point x="486" y="579" type="qcurve"/>
      <point x="477" y="582"/>
      <point x="456" y="590" type="qcurve"/>
      <point x="427" y="602"/>
      <point x="412" y="606" type="qcurve"/>
      <point x="385" y="614"/>
      <point x="364" y="613" type="qcurve"/>
      <point x="307" y="612"/>
      <point x="208" y="552"/>
      <point x="178" y="501" type="qcurve"/>
      <point x="141" y="436"/>
      <point x="141" y="348" type="qcurve"/>
      <point x="141" y="270"/>
      <point x="169" y="185" type="qcurve"/>
      <point x="194" y="108"/>
      <point x="235" y="49" type="qcurve"/>
      <point x="273" y="-5"/>
      <point x="298" y="-28" type="qcurve"/>
      <point x="337" y="-65"/>
      <point x="377" y="-64" type="qcurve"/>
      <point x="394" y="-63"/>
      <point x="411" y="-58" type="qcurve"/>
      <point x="422" y="-55"/>
      <point x="441" y="-47" type="qcurve"/>
      <point x="464" y="-37"/>
      <point x="477" y="-33" type="qcurve"/>
      <point x="499" y="-27"/>
      <point x="547" y="-27"/>
      <point x="568" y="-33" type="qcurve"/>
      <point x="580" y="-37"/>
      <point x="622" y="-55"/>
      <point x="633" y="-58" type="qcurve"/>
      <point x="652" y="-63"/>
      <point x="671" y="-63" type="qcurve"/>
      <point x="712" y="-62"/>
      <point x="749" y="-28" type="qcurve"/>
      <point x="772" y="-6"/>
      <point x="808" y="47" type="qcurve"/>
      <point x="834" y="85"/>
      <point x="854" y="130" type="qcurve"/>
      <point x="864" y="153"/>
      <point x="870" y="174" type="qcurve"/>
      <point x="870" y="175" type="line"/>
      <point x="854" y="181"/>
      <point x="837" y="193" type="qcurve"/>
      <point x="802" y="217"/>
      <point x="780" y="251" type="qcurve"/>
      <point x="751" y="297"/>
    </contour>
    <contour>
      <point x="637" y="689" type="qcurve"/>
      <point x="662" y="719"/>
      <point x="675" y="755" type="qcurve"/>
      <point x="688" y="794"/>
      <point x="684" y="832" type="qcurve"/>
      <point x="650" y="831"/>
      <point x="576" y="793"/>
      <point x="528" y="736"/>
      <point x="515" y="702" type="qcurve"/>
      <point x="500" y="662"/>
      <point x="504" y="626" type="qcurve"/>
      <point x="541" y="623"/>
      <point x="578" y="642" type="qcurve"/>
      <point x="613" y="659"/>
    </contour>
  </outline>
</glyph>
<glyph name="weix" format="2">
  <advance width="1024"/>
  <unicode hex="E645"/>
  <outline>
    <contour>
      <point x="673" y="523" type="qcurve"/>
      <point x="687" y="523"/>
      <point x="704" y="521" type="qcurve"/>
      <point x="690" y="584"/>
      <point x="597" y="685"/>
      <point x="460" y="742"/>
      <point x="383" y="742" type="qcurve"/>
      <point x="296" y="742"/>
      <point x="150" y="671"/>
      <point x="108" y="610" type="qcurve"/>
      <point x="64" y="548"/>
      <point x="64" y="474" type="qcurve"/>
      <point x="64" y="411"/>
      <point x="98" y="356" type="qcurve"/>
      <point x="130" y="304"/>
      <point x="191" y="261" type="qcurve"/>
      <point x="160" y="166" type="line"/>
      <point x="271" y="222" type="line"/>
      <point x="289" y="218" type="line"/>
      <point x="320" y="212"/>
      <point x="335" y="210" type="qcurve"/>
      <point x="360" y="206"/>
      <point x="383" y="206" type="qcurve"/>
      <point x="396" y="206"/>
      <point x="412" y="207" type="qcurve"/>
      <point x="403" y="239"/>
      <point x="402" y="273" type="qcurve"/>
      <point x="402" y="341"/>
      <point x="475" y="456"/>
      <point x="536" y="489" type="qcurve"/>
      <point x="599" y="523"/>
    </contour>
    <contour>
      <point x="502" y="608" type="qcurve"/>
      <point x="520" y="608"/>
      <point x="542" y="587"/>
      <point x="542" y="551"/>
      <point x="520" y="529"/>
      <point x="483" y="529"/>
      <point x="454" y="552"/>
      <point x="454" y="586"/>
      <point x="483" y="608"/>
    </contour>
    <contour>
      <point x="279" y="529" type="qcurve"/>
      <point x="260" y="529"/>
      <point x="231" y="552"/>
      <point x="231" y="586"/>
      <point x="260" y="608"/>
      <point x="297" y="608"/>
      <point x="319" y="587"/>
      <point x="319" y="551"/>
      <point x="297" y="529"/>
    </contour>
    <contour>
      <point x="960" y="272" type="qcurve"/>
      <point x="960" y="333"/>
      <point x="922" y="386" type="qcurve"/>
      <point x="885" y="438"/>
      <point x="762" y="499"/>
      <point x="691" y="499" type="qcurve"/>
      <point x="617" y="499"/>
      <point x="555" y="468" type="qcurve"/>
      <point x="494" y="438"/>
      <point x="422" y="333"/>
      <point x="422" y="210"/>
      <point x="494" y="105"/>
      <point x="555" y="75" type="qcurve"/>
      <point x="617" y="44"/>
      <point x="691" y="44" type="qcurve"/>
      <point x="712" y="44"/>
      <point x="739" y="49" type="qcurve"/>
      <point x="755" y="52"/>
      <point x="786" y="60" type="qcurve"/>
      <point x="873" y="13" type="line"/>
      <point x="849" y="91" type="line"/>
      <point x="900" y="129"/>
      <point x="928" y="173" type="qcurve"/>
      <point x="960" y="221"/>
    </contour>
    <contour>
      <point x="604" y="311" type="qcurve"/>
      <point x="592" y="311"/>
      <point x="573" y="330"/>
      <point x="573" y="354"/>
      <point x="592" y="374"/>
      <point x="604" y="374" type="qcurve"/>
      <point x="621" y="374"/>
      <point x="644" y="355"/>
      <point x="644" y="330"/>
      <point x="621" y="311"/>
    </contour>
    <contour>
      <point x="778" y="311" type="qcurve"/>
      <point x="766" y="311"/>
      <point x="747" y="330"/>
      <point x="747" y="354"/>
      <point x="766" y="374"/>
      <point x="778" y="374" type="qcurve"/>
      <point x="795" y="374"/>
      <point x="818" y="355"/>
      <point x="818" y="330"/>
      <point x="795" y="311"/>
    </contour>
  </outline>
</glyph>
<glyph name="anz" format="2">
  <advance width="1024"/>
  <unicode hex="E646"/>
  <outline>
    <contour>
      <point x="754" y="563" type="qcurve"/>
      <point x="755" y="572"/>
      <point x="751" y="576"/>
      <point x="743" y="576" type="qcurve"/>
      <point x="295" y="576" type="line"/>
      <point x="285" y="576"/>
      <point x="282" y="573"/>
      <point x="282" y="562" type="qcurve"/>
      <point x="282" y="170" type="line"/>
      <point x="283" y="152"/>
      <point x="306" y="130"/>
      <point x="323" y="130" type="qcurve"/>
      <point x="360" y="130" type="line"/>
      <point x="369" y="130"/>
      <point x="369" y="121" type="qcurve"/>
      <point x="369" y="9" type="line"/>
      <point x="368" y="-30"/>
      <point x="401" y="-36" type="qcurve"/>
      <point x="421" y="-40"/>
      <point x="445" y="-36" type="qcurve"/>
      <point x="457" y="-34"/>
      <point x="476" y="-9"/>
      <point x="476" y="2" type="qcurve"/>
      <point x="475" y="25"/>
      <point x="475" y="72" type="qcurve"/>
      <point x="475" y="120" type="line"/>
      <point x="475" y="126"/>
      <point x="480" y="130"/>
      <point x="486" y="130" type="qcurve"/>
      <point x="551" y="130" type="line"/>
      <point x="561" y="130"/>
      <point x="565" y="126"/>
      <point x="565" y="116" type="qcurve"/>
      <point x="565" y="4" type="line"/>
      <point x="565" y="-13"/>
      <point x="584" y="-35"/>
      <point x="600" y="-37" type="qcurve"/>
      <point x="620" y="-39"/>
      <point x="634" y="-38" type="qcurve"/>
      <point x="641" y="-37"/>
      <point x="647" y="-34" type="qcurve"/>
      <point x="671" y="-22"/>
      <point x="671" y="8" type="qcurve"/>
      <point x="671" y="119" type="line"/>
      <point x="671" y="127"/>
      <point x="674" y="130"/>
      <point x="682" y="130" type="qcurve"/>
      <point x="717" y="130" type="line"/>
      <point x="731" y="130"/>
      <point x="755" y="154"/>
      <point x="754" y="167" type="qcurve"/>
      <point x="754" y="176"/>
      <point x="755" y="193" type="qcurve"/>
      <point x="755" y="210" type="line"/>
      <point x="755" y="542" type="line"/>
      <point x="755" y="550" type="line"/>
      <point x="754" y="558"/>
    </contour>
    <contour>
      <point x="293" y="602" type="qcurve"/>
      <point x="338" y="602"/>
      <point x="428" y="602" type="qcurve"/>
      <point x="745" y="602" type="line"/>
      <point x="753" y="602"/>
      <point x="756" y="606"/>
      <point x="753" y="613" type="qcurve"/>
      <point x="722" y="701"/>
      <point x="646" y="749" type="qcurve"/>
      <point x="640" y="752"/>
      <point x="638" y="759"/>
      <point x="642" y="765" type="qcurve"/>
      <point x="660" y="793" type="line"/>
      <point x="676" y="819" type="line"/>
      <point x="680" y="826"/>
      <point x="668" y="834"/>
      <point x="663" y="828" type="qcurve"/>
      <point x="659" y="822" type="line"/>
      <point x="654" y="814"/>
      <point x="644" y="798" type="qcurve"/>
      <point x="632" y="778"/>
      <point x="625" y="769" type="qcurve"/>
      <point x="621" y="762"/>
      <point x="613" y="765" type="qcurve"/>
      <point x="599" y="772"/>
      <point x="590" y="774" type="qcurve"/>
      <point x="501" y="798"/>
      <point x="424" y="766" type="qcurve"/>
      <point x="417" y="763"/>
      <point x="413" y="769" type="qcurve"/>
      <point x="377" y="827" type="line"/>
      <point x="372" y="834"/>
      <point x="359" y="827"/>
      <point x="363" y="819" type="qcurve"/>
      <point x="368" y="811" type="line"/>
      <point x="396" y="767" type="line"/>
      <point x="400" y="760"/>
      <point x="399" y="753"/>
      <point x="393" y="750" type="qcurve"/>
      <point x="360" y="731"/>
      <point x="337" y="705" type="qcurve"/>
      <point x="300" y="665"/>
      <point x="284" y="614" type="qcurve"/>
      <point x="281" y="605"/>
      <point x="284" y="602"/>
    </contour>
    <contour>
      <point x="617" y="705" type="qcurve"/>
      <point x="626" y="705"/>
      <point x="641" y="689"/>
      <point x="642" y="671"/>
      <point x="626" y="654"/>
      <point x="608" y="653"/>
      <point x="592" y="669"/>
      <point x="592" y="688"/>
      <point x="607" y="705"/>
    </contour>
    <contour>
      <point x="417" y="701" type="qcurve"/>
      <point x="426" y="701"/>
      <point x="439" y="686"/>
      <point x="439" y="666"/>
      <point x="426" y="650"/>
      <point x="407" y="650"/>
      <point x="392" y="666"/>
      <point x="391" y="687"/>
      <point x="406" y="700"/>
    </contour>
    <contour>
      <point x="896" y="447" type="line"/>
      <point x="896" y="454"/>
      <point x="896" y="468" type="qcurve"/>
      <point x="896" y="502"/>
      <point x="896" y="520" type="qcurve"/>
      <point x="895" y="546"/>
      <point x="873" y="558" type="qcurve"/>
      <point x="866" y="561"/>
      <point x="858" y="563" type="qcurve"/>
      <point x="852" y="563"/>
      <point x="842" y="563" type="qcurve"/>
      <point x="837" y="563" type="line"/>
      <point x="817" y="563"/>
      <point x="794" y="538"/>
      <point x="794" y="517" type="qcurve"/>
      <point x="794" y="275" type="line"/>
      <point x="794" y="250"/>
      <point x="814" y="237" type="qcurve"/>
      <point x="822" y="232"/>
      <point x="832" y="231" type="qcurve"/>
      <point x="838" y="230"/>
      <point x="850" y="231" type="qcurve"/>
      <point x="859" y="231" type="line"/>
      <point x="865" y="230"/>
      <point x="867" y="232" type="qcurve"/>
      <point x="896" y="247"/>
      <point x="896" y="278" type="qcurve"/>
    </contour>
    <contour>
      <point x="203" y="563" type="qcurve"/>
      <point x="200" y="563"/>
      <point x="194" y="563" type="qcurve"/>
      <point x="184" y="563" type="line"/>
      <point x="164" y="563"/>
      <point x="139" y="533"/>
      <point x="141" y="511" type="qcurve"/>
      <point x="142" y="501"/>
      <point x="142" y="489" type="qcurve"/>
      <point x="142" y="273" type="line"/>
      <point x="142" y="250"/>
      <point x="163" y="237" type="qcurve"/>
      <point x="171" y="231"/>
      <point x="183" y="231" type="qcurve"/>
      <point x="190" y="230"/>
      <point x="203" y="231" type="qcurve"/>
      <point x="205" y="232" type="line"/>
      <point x="223" y="233"/>
      <point x="243" y="259"/>
      <point x="243" y="278" type="qcurve"/>
      <point x="242" y="325" type="line"/>
      <point x="242" y="389" type="line"/>
      <point x="241" y="476"/>
      <point x="243" y="519" type="qcurve"/>
      <point x="244" y="538"/>
      <point x="217" y="563"/>
    </contour>
  </outline>
</glyph>
<glyph name="background_logo" format="2">
  <advance width="1024"/>
  <unicode hex="E647"/>
  <outline>
    <contour>
      <point x="192" y="865" type="line"/>
      <point x="225" y="865"/>
      <point x="230" y="836" type="qcurve"/>
      <point x="231" y="813" type="line"/>
      <point x="237" y="784"/>
      <point x="244" y="770" type="qcurve"/>
      <point x="263" y="732"/>
      <point x="325" y="690"/>
      <point x="375" y="682" type="qcurve"/>
      <point x="627" y="682" type="line"/>
      <point x="672" y="681"/>
      <point x="689" y="685" type="qcurve"/>
      <point x="711" y="691"/>
      <point x="748" y="713"/>
      <point x="759" y="727" type="qcurve"/>
      <point x="783" y="756"/>
      <point x="792" y="798" type="qcurve"/>
      <point x="794" y="806"/>
      <point x="795" y="838"/>
      <point x="797" y="844" type="qcurve"/>
      <point x="801" y="855"/>
      <point x="811" y="861" type="qcurve"/>
      <point x="824" y="869"/>
      <point x="854" y="858"/>
      <point x="859" y="846" type="qcurve"/>
      <point x="861" y="839"/>
      <point x="862" y="817"/>
      <point x="860" y="807" type="qcurve"/>
      <point x="848" y="737"/>
      <point x="785" y="650"/>
      <point x="728" y="628" type="qcurve"/>
      <point x="704" y="618"/>
      <point x="664" y="616" type="qcurve"/>
      <point x="640" y="614"/>
      <point x="589" y="615" type="qcurve"/>
      <point x="419" y="615" type="line"/>
      <point x="390" y="615"/>
      <point x="377" y="615" type="qcurve"/>
      <point x="354" y="617"/>
      <point x="338" y="620" type="qcurve"/>
      <point x="307" y="628"/>
      <point x="281" y="642" type="qcurve"/>
      <point x="259" y="654"/>
      <point x="235" y="673" type="qcurve"/>
      <point x="186" y="712"/>
      <point x="169" y="787" type="qcurve"/>
      <point x="163" y="809"/>
      <point x="164" y="827" type="qcurve"/>
      <point x="165" y="850"/>
      <point x="177" y="859" type="qcurve"/>
      <point x="180" y="861"/>
      <point x="186" y="863" type="qcurve"/>
    </contour>
    <contour>
      <point x="301" y="520" type="line"/>
      <point x="324" y="520"/>
      <point x="351" y="493"/>
      <point x="354" y="455"/>
      <point x="331" y="423"/>
      <point x="309" y="420" type="qcurve"/>
      <point x="291" y="417"/>
      <point x="261" y="437"/>
      <point x="250" y="472"/>
      <point x="256" y="489" type="qcurve"/>
      <point x="260" y="498"/>
      <point x="275" y="513"/>
      <point x="285" y="517" type="qcurve"/>
    </contour>
    <contour>
      <point x="657" y="485" type="qcurve"/>
      <point x="728" y="485" type="line"/>
      <point x="735" y="485" type="line"/>
      <point x="754" y="486"/>
      <point x="763" y="480"/>
      <point x="767" y="466"/>
      <point x="766" y="460" type="qcurve"/>
      <point x="763" y="450"/>
      <point x="740" y="448" type="qcurve"/>
      <point x="727" y="446"/>
      <point x="697" y="448" type="qcurve"/>
      <point x="674" y="448" type="line"/>
      <point x="657" y="447"/>
      <point x="652" y="450" type="qcurve"/>
      <point x="641" y="456"/>
      <point x="646" y="479"/>
    </contour>
    <contour>
      <point x="296" y="292" type="line"/>
      <point x="613" y="292" type="line"/>
      <point x="652" y="293" type="line"/>
      <point x="698" y="294"/>
      <point x="720" y="293" type="qcurve"/>
      <point x="757" y="291"/>
      <point x="779" y="284" type="qcurve"/>
      <point x="846" y="264"/>
      <point x="884" y="207" type="qcurve"/>
      <point x="901" y="180"/>
      <point x="911" y="149" type="qcurve"/>
      <point x="922" y="110"/>
      <point x="909" y="40"/>
      <point x="898" y="14" type="qcurve"/>
      <point x="881" y="-25"/>
      <point x="812" y="-80"/>
      <point x="767" y="-91" type="qcurve"/>
      <point x="750" y="-95"/>
      <point x="725" y="-96" type="qcurve"/>
      <point x="710" y="-97"/>
      <point x="678" y="-96" type="qcurve"/>
      <point x="455" y="-96" type="line"/>
      <point x="408" y="-97" type="line"/>
      <point x="339" y="-98"/>
      <point x="307" y="-96" type="qcurve"/>
      <point x="253" y="-92"/>
      <point x="223" y="-79" type="qcurve"/>
      <point x="186" y="-64"/>
      <point x="157" y="-30" type="qcurve"/>
      <point x="125" y="6"/>
      <point x="113" y="50" type="qcurve"/>
      <point x="99" y="100"/>
      <point x="115" y="150" type="qcurve"/>
      <point x="126" y="187"/>
      <point x="146" y="215" type="qcurve"/>
      <point x="183" y="265"/>
      <point x="248" y="285" type="qcurve"/>
      <point x="279" y="291" type="line"/>
    </contour>
    <contour>
      <point x="296" y="225" type="line"/>
      <point x="291" y="223"/>
      <point x="269" y="222"/>
      <point x="265" y="220" type="qcurve"/>
      <point x="226" y="209"/>
      <point x="181" y="152"/>
      <point x="172" y="80"/>
      <point x="199" y="14"/>
      <point x="227" y="-5" type="qcurve"/>
      <point x="252" y="-23"/>
      <point x="298" y="-28" type="qcurve"/>
      <point x="326" y="-31"/>
      <point x="389" y="-30" type="qcurve"/>
      <point x="430" y="-29" type="line"/>
      <point x="646" y="-29" type="line"/>
      <point x="672" y="-30" type="line"/>
      <point x="704" y="-30"/>
      <point x="719" y="-30" type="qcurve"/>
      <point x="745" y="-29"/>
      <point x="761" y="-24" type="qcurve"/>
      <point x="792" y="-14"/>
      <point x="836" y="31"/>
      <point x="846" y="63" type="qcurve"/>
      <point x="858" y="103"/>
      <point x="843" y="143" type="qcurve"/>
      <point x="829" y="178"/>
      <point x="803" y="199" type="qcurve"/>
      <point x="778" y="218"/>
      <point x="741" y="223" type="qcurve"/>
      <point x="717" y="226"/>
      <point x="662" y="226" type="qcurve"/>
    </contour>
    <contour>
      <point x="296" y="149" type="line"/>
      <point x="321" y="149"/>
      <point x="351" y="123"/>
      <point x="354" y="84"/>
      <point x="331" y="52"/>
      <point x="309" y="49" type="qcurve"/>
      <point x="292" y="46"/>
      <point x="263" y="64"/>
      <point x="250" y="97"/>
      <point x="255" y="113" type="qcurve"/>
      <point x="259" y="127"/>
      <point x="269" y="135" type="qcurve"/>
      <point x="275" y="140"/>
      <point x="293" y="147" type="qcurve"/>
    </contour>
    <contour>
      <point x="699" y="149" type="line"/>
      <point x="724" y="149"/>
      <point x="753" y="123"/>
      <point x="757" y="86"/>
      <point x="736" y="54"/>
      <point x="716" y="49" type="qcurve"/>
      <point x="698" y="45"/>
      <point x="667" y="63"/>
      <point x="652" y="95"/>
      <point x="662" y="127"/>
      <point x="671" y="135" type="qcurve"/>
      <point x="677" y="139"/>
      <point x="693" y="146" type="qcurve"/>
    </contour>
  </outline>
</glyph>
<glyph name="xingzhuangjiehe3x" format="2">
  <advance width="1024"/>
  <unicode hex="E648"/>
  <outline>
    <contour>
      <point x="788" y="896" type="line"/>
      <point x="852" y="896"/>
      <point x="961" y="833"/>
      <point x="1024" y="724"/>
      <point x="1024" y="660" type="qcurve"/>
      <point x="1024" y="108" type="line"/>
      <point x="1024" y="44"/>
      <point x="961" y="-65"/>
      <point x="852" y="-128"/>
      <point x="788" y="-128" type="qcurve"/>
      <point x="236" y="-128" type="line"/>
      <point x="172" y="-128"/>
      <point x="63" y="-65"/>
      <point x="0" y="44"/>
      <point x="0" y="108" type="qcurve"/>
      <point x="0" y="660" type="line"/>
      <point x="0" y="724"/>
      <point x="63" y="833"/>
      <point x="172" y="896"/>
      <point x="236" y="896" type="qcurve"/>
    </contour>
    <contour>
      <point x="743" y="298" type="qcurve"/>
      <point x="715" y="307"/>
      <point x="648" y="306" type="qcurve"/>
      <point x="599" y="305" type="line"/>
      <point x="325" y="305" type="line"/>
      <point x="311" y="304" type="line"/>
      <point x="284" y="299" type="line"/>
      <point x="228" y="282"/>
      <point x="196" y="238" type="qcurve"/>
      <point x="178" y="214"/>
      <point x="168" y="182" type="qcurve"/>
      <point x="155" y="139"/>
      <point x="167" y="95" type="qcurve"/>
      <point x="177" y="57"/>
      <point x="205" y="26" type="qcurve"/>
      <point x="230" y="-3"/>
      <point x="262" y="-16" type="qcurve"/>
      <point x="286" y="-27"/>
      <point x="328" y="-30" type="qcurve"/>
      <point x="357" y="-32"/>
      <point x="409" y="-31" type="qcurve"/>
      <point x="463" y="-31" type="line"/>
      <point x="666" y="-31" type="line"/>
      <point x="711" y="-32"/>
      <point x="732" y="-26" type="qcurve"/>
      <point x="771" y="-17"/>
      <point x="831" y="31"/>
      <point x="846" y="65" type="qcurve"/>
      <point x="856" y="87"/>
      <point x="867" y="147"/>
      <point x="857" y="181" type="qcurve"/>
      <point x="849" y="208"/>
      <point x="834" y="231" type="qcurve"/>
      <point x="801" y="281"/>
    </contour>
    <contour>
      <point x="615" y="247" type="line"/>
      <point x="624" y="247"/>
      <point x="641" y="248" type="qcurve"/>
      <point x="690" y="248"/>
      <point x="710" y="245" type="qcurve"/>
      <point x="742" y="241"/>
      <point x="786" y="207"/>
      <point x="798" y="176" type="qcurve"/>
      <point x="811" y="141"/>
      <point x="801" y="107" type="qcurve"/>
      <point x="792" y="79"/>
      <point x="754" y="40"/>
      <point x="727" y="32" type="qcurve"/>
      <point x="707" y="26"/>
      <point x="661" y="26" type="qcurve"/>
      <point x="441" y="27" type="line"/>
      <point x="406" y="27" type="line"/>
      <point x="351" y="25"/>
      <point x="327" y="28" type="qcurve"/>
      <point x="287" y="32"/>
      <point x="265" y="48" type="qcurve"/>
      <point x="241" y="65"/>
      <point x="218" y="121"/>
      <point x="226" y="184"/>
      <point x="265" y="233"/>
      <point x="298" y="243" type="qcurve"/>
      <point x="302" y="244"/>
      <point x="321" y="246"/>
      <point x="326" y="247" type="qcurve"/>
    </contour>
    <contour>
      <point x="327" y="181" type="line"/>
      <point x="325" y="181" type="line"/>
      <point x="322" y="180" type="line"/>
      <point x="307" y="173"/>
      <point x="302" y="169" type="qcurve"/>
      <point x="293" y="162"/>
      <point x="290" y="150" type="qcurve"/>
      <point x="285" y="136"/>
      <point x="297" y="108"/>
      <point x="322" y="92"/>
      <point x="337" y="94" type="qcurve"/>
      <point x="356" y="98"/>
      <point x="376" y="125"/>
      <point x="373" y="158"/>
      <point x="347" y="181"/>
      <point x="325" y="181" type="qcurve"/>
    </contour>
    <contour>
      <point x="675" y="181" type="line"/>
      <point x="674" y="181" type="line"/>
      <point x="669" y="179" type="line"/>
      <point x="654" y="173"/>
      <point x="649" y="169" type="qcurve"/>
      <point x="641" y="162"/>
      <point x="633" y="135"/>
      <point x="646" y="106"/>
      <point x="673" y="91"/>
      <point x="688" y="95" type="qcurve"/>
      <point x="706" y="99"/>
      <point x="724" y="126"/>
      <point x="721" y="159"/>
      <point x="695" y="181"/>
      <point x="674" y="181" type="qcurve"/>
    </contour>
    <contour>
      <point x="329" y="502" type="qcurve"/>
      <point x="315" y="499" type="line"/>
      <point x="298" y="492"/>
      <point x="291" y="475" type="qcurve"/>
      <point x="285" y="461"/>
      <point x="295" y="430"/>
      <point x="321" y="413"/>
      <point x="336" y="415" type="qcurve"/>
      <point x="355" y="419"/>
      <point x="375" y="446"/>
      <point x="373" y="479"/>
      <point x="350" y="502"/>
    </contour>
    <contour>
      <point x="726" y="470" type="qcurve"/>
      <point x="721" y="472"/>
      <point x="705" y="472" type="qcurve"/>
      <point x="637" y="472" type="line"/>
      <point x="628" y="467"/>
      <point x="623" y="446"/>
      <point x="633" y="441" type="qcurve"/>
      <point x="638" y="439"/>
      <point x="652" y="440" type="qcurve"/>
      <point x="672" y="439" type="line"/>
      <point x="698" y="438"/>
      <point x="709" y="440" type="qcurve"/>
      <point x="729" y="442"/>
      <point x="731" y="450" type="qcurve"/>
      <point x="733" y="456"/>
      <point x="729" y="467"/>
    </contour>
    <contour>
      <point x="812" y="784" type="qcurve"/>
      <point x="808" y="794"/>
      <point x="782" y="804"/>
      <point x="770" y="797" type="qcurve"/>
      <point x="762" y="792"/>
      <point x="759" y="782" type="qcurve"/>
      <point x="757" y="777"/>
      <point x="756" y="750"/>
      <point x="754" y="742" type="qcurve"/>
      <point x="746" y="706"/>
      <point x="705" y="655"/>
      <point x="665" y="645" type="qcurve"/>
      <point x="651" y="642"/>
      <point x="618" y="642" type="qcurve"/>
      <point x="393" y="642" type="line"/>
      <point x="351" y="650"/>
      <point x="296" y="686"/>
      <point x="280" y="718" type="qcurve"/>
      <point x="274" y="730"/>
      <point x="269" y="755" type="qcurve"/>
      <point x="268" y="775" type="line"/>
      <point x="264" y="801"/>
      <point x="235" y="801" type="qcurve"/>
      <point x="230" y="799" type="line"/>
      <point x="224" y="797"/>
      <point x="222" y="795" type="qcurve"/>
      <point x="212" y="788"/>
      <point x="211" y="768" type="qcurve"/>
      <point x="210" y="752"/>
      <point x="215" y="733" type="qcurve"/>
      <point x="230" y="668"/>
      <point x="272" y="634" type="qcurve"/>
      <point x="293" y="618"/>
      <point x="312" y="607" type="qcurve"/>
      <point x="335" y="596"/>
      <point x="362" y="589" type="qcurve"/>
      <point x="382" y="584"/>
      <point x="428" y="584" type="qcurve"/>
      <point x="595" y="584" type="line"/>
      <point x="630" y="584"/>
      <point x="651" y="585" type="qcurve"/>
      <point x="680" y="588"/>
      <point x="699" y="595" type="qcurve"/>
      <point x="748" y="615"/>
      <point x="803" y="690"/>
      <point x="813" y="751" type="qcurve"/>
      <point x="814" y="759"/>
      <point x="814" y="778"/>
    </contour>
  </outline>
</glyph>
<glyph name="nainiuyun" format="2">
  <advance width="1024"/>
  <unicode hex="E64A"/>
  <outline>
    <contour>
      <point x="1" y="895" type="line"/>
    </contour>
    <contour>
      <point x="141" y="895" type="qcurve"/>
      <point x="883" y="895" type="line"/>
      <point x="1023" y="895"/>
      <point x="1023" y="755" type="qcurve"/>
      <point x="1023" y="13" type="line"/>
      <point x="1023" y="-127"/>
      <point x="883" y="-127" type="qcurve"/>
      <point x="141" y="-127" type="line"/>
      <point x="1" y="-127"/>
      <point x="1" y="13" type="qcurve"/>
      <point x="1" y="755" type="line"/>
      <point x="1" y="895"/>
    </contour>
    <contour>
      <point x="267" y="753" type="line"/>
      <point x="292" y="753"/>
      <point x="296" y="731" type="qcurve"/>
      <point x="297" y="713" type="line"/>
      <point x="301" y="691"/>
      <point x="306" y="680" type="qcurve"/>
      <point x="321" y="651"/>
      <point x="369" y="619"/>
      <point x="407" y="613" type="qcurve"/>
      <point x="601" y="612" type="line"/>
      <point x="634" y="612"/>
      <point x="648" y="616" type="qcurve"/>
      <point x="683" y="624"/>
      <point x="719" y="670"/>
      <point x="726" y="702" type="qcurve"/>
      <point x="728" y="708"/>
      <point x="729" y="732"/>
      <point x="731" y="737" type="qcurve"/>
      <point x="733" y="745"/>
      <point x="741" y="750" type="qcurve"/>
      <point x="751" y="756"/>
      <point x="774" y="747"/>
      <point x="782" y="728"/>
      <point x="779" y="709" type="qcurve"/>
      <point x="770" y="655"/>
      <point x="721" y="588"/>
      <point x="677" y="571" type="qcurve"/>
      <point x="659" y="564"/>
      <point x="629" y="562" type="qcurve"/>
      <point x="610" y="561"/>
      <point x="571" y="561" type="qcurve"/>
      <point x="441" y="561" type="line"/>
      <point x="397" y="561"/>
      <point x="379" y="566" type="qcurve"/>
      <point x="336" y="576"/>
      <point x="263" y="635"/>
      <point x="249" y="693" type="qcurve"/>
      <point x="245" y="710"/>
      <point x="246" y="724" type="qcurve"/>
      <point x="247" y="742"/>
      <point x="255" y="748" type="qcurve"/>
      <point x="257" y="750"/>
      <point x="262" y="751" type="qcurve"/>
    </contour>
    <contour>
      <point x="351" y="488" type="line"/>
      <point x="374" y="488"/>
      <point x="394" y="453"/>
      <point x="379" y="415"/>
      <point x="357" y="411" type="qcurve"/>
      <point x="343" y="409"/>
      <point x="320" y="425"/>
      <point x="312" y="452"/>
      <point x="317" y="464" type="qcurve"/>
      <point x="323" y="479"/>
      <point x="338" y="486" type="qcurve"/>
    </contour>
    <contour>
      <point x="622" y="463" type="qcurve"/>
      <point x="678" y="463" type="line"/>
      <point x="683" y="463" type="line"/>
      <point x="697" y="463"/>
      <point x="704" y="459"/>
      <point x="708" y="448"/>
      <point x="706" y="443" type="qcurve"/>
      <point x="704" y="436"/>
      <point x="687" y="434" type="qcurve"/>
      <point x="676" y="433"/>
      <point x="654" y="434" type="qcurve"/>
      <point x="636" y="434" type="line"/>
      <point x="623" y="433"/>
      <point x="619" y="435" type="qcurve"/>
      <point x="610" y="440"/>
      <point x="614" y="458"/>
    </contour>
    <contour>
      <point x="346" y="313" type="line"/>
      <point x="589" y="313" type="line"/>
      <point x="619" y="314" type="line"/>
      <point x="654" y="314"/>
      <point x="671" y="314" type="qcurve"/>
      <point x="699" y="312"/>
      <point x="717" y="307" type="qcurve"/>
      <point x="768" y="292"/>
      <point x="797" y="248" type="qcurve"/>
      <point x="810" y="227"/>
      <point x="817" y="204" type="qcurve"/>
      <point x="826" y="173"/>
      <point x="816" y="120"/>
      <point x="808" y="100" type="qcurve"/>
      <point x="794" y="70"/>
      <point x="742" y="28"/>
      <point x="707" y="20" type="qcurve"/>
      <point x="688" y="15"/>
      <point x="639" y="16" type="qcurve"/>
      <point x="468" y="16" type="line"/>
      <point x="432" y="15" type="line"/>
      <point x="379" y="14"/>
      <point x="354" y="16" type="qcurve"/>
      <point x="313" y="18"/>
      <point x="290" y="29" type="qcurve"/>
      <point x="262" y="41"/>
      <point x="240" y="66" type="qcurve"/>
      <point x="215" y="94"/>
      <point x="206" y="127" type="qcurve"/>
      <point x="195" y="166"/>
      <point x="207" y="204" type="qcurve"/>
      <point x="216" y="232"/>
      <point x="231" y="254" type="qcurve"/>
      <point x="260" y="292"/>
      <point x="309" y="308" type="qcurve"/>
      <point x="333" y="312" type="line"/>
    </contour>
    <contour>
      <point x="347" y="263" type="line"/>
      <point x="343" y="262"/>
      <point x="326" y="260"/>
      <point x="323" y="259" type="qcurve"/>
      <point x="293" y="250"/>
      <point x="259" y="207"/>
      <point x="252" y="151"/>
      <point x="273" y="101"/>
      <point x="294" y="86" type="qcurve"/>
      <point x="313" y="72"/>
      <point x="349" y="69" type="qcurve"/>
      <point x="370" y="66"/>
      <point x="418" y="67" type="qcurve"/>
      <point x="450" y="68" type="line"/>
      <point x="635" y="68" type="line"/>
      <point x="660" y="67"/>
      <point x="672" y="67" type="qcurve"/>
      <point x="691" y="68"/>
      <point x="703" y="72" type="qcurve"/>
      <point x="727" y="80"/>
      <point x="761" y="114"/>
      <point x="768" y="139" type="qcurve"/>
      <point x="778" y="169"/>
      <point x="766" y="200" type="qcurve"/>
      <point x="756" y="227"/>
      <point x="717" y="257"/>
      <point x="688" y="261" type="qcurve"/>
      <point x="670" y="264"/>
      <point x="627" y="263" type="qcurve"/>
    </contour>
    <contour>
      <point x="346" y="204" type="line"/>
      <point x="366" y="204"/>
      <point x="389" y="184"/>
      <point x="391" y="154"/>
      <point x="373" y="130"/>
      <point x="356" y="127" type="qcurve"/>
      <point x="343" y="125"/>
      <point x="321" y="139"/>
      <point x="310" y="164"/>
      <point x="318" y="187"/>
      <point x="325" y="193" type="qcurve"/>
      <point x="330" y="197"/>
      <point x="343" y="203" type="qcurve"/>
    </contour>
    <contour>
      <point x="656" y="204" type="line"/>
      <point x="681" y="204"/>
      <point x="704" y="171"/>
      <point x="690" y="132"/>
      <point x="669" y="127" type="qcurve"/>
      <point x="655" y="124"/>
      <point x="631" y="138"/>
      <point x="620" y="163"/>
      <point x="627" y="187"/>
      <point x="634" y="193" type="qcurve"/>
      <point x="639" y="197"/>
      <point x="651" y="202" type="qcurve"/>
    </contour>
  </outline>
</glyph>
<glyph name="win" format="2">
  <advance width="1024"/>
  <unicode hex="E64B"/>
  <outline>
    <contour>
      <point x="471" y="409" type="line"/>
      <point x="471" y="709" type="line"/>
      <point x="143" y="657" type="line"/>
      <point x="143" y="409" type="line"/>
    </contour>
    <contour>
      <point x="512" y="368" type="line"/>
      <point x="512" y="61" type="line"/>
      <point x="881" y="3" type="line"/>
      <point x="881" y="368" type="line"/>
    </contour>
    <contour>
      <point x="512" y="409" type="line"/>
      <point x="881" y="409" type="line"/>
      <point x="881" y="774" type="line"/>
      <point x="512" y="716" type="line"/>
    </contour>
    <contour>
      <point x="471" y="368" type="line"/>
      <point x="143" y="368" type="line"/>
      <point x="143" y="119" type="line"/>
      <point x="471" y="68" type="line"/>
    </contour>
  </outline>
</glyph>
<glyph name="bianzu" format="2">
  <advance width="1024"/>
  <unicode hex="E64C"/>
  <outline>
    <contour>
      <point x="457" y="344" type="line"/>
      <point x="424" y="363" type="line"/>
      <point x="217" y="243" type="line"/>
      <point x="217" y="721" type="line"/>
      <point x="123" y="776" type="line"/>
      <point x="114" y="780"/>
      <point x="95" y="780"/>
      <point x="78" y="770"/>
      <point x="68" y="753"/>
      <point x="68" y="743" type="qcurve"/>
      <point x="68" y="30" type="line"/>
      <point x="68" y="15"/>
      <point x="90" y="-8"/>
      <point x="105" y="-8" type="qcurve"/>
      <point x="115" y="-8"/>
      <point x="123" y="-3" type="qcurve"/>
      <point x="217" y="52" type="line"/>
      <point x="589" y="267" type="line"/>
    </contour>
    <contour>
      <point x="457" y="391" type="line"/>
      <point x="672" y="267" type="line"/>
      <point x="258" y="28" type="line"/>
      <point x="258" y="-81" type="line"/>
      <point x="258" y="-90"/>
      <point x="263" y="-98" type="qcurve"/>
      <point x="271" y="-112"/>
      <point x="301" y="-120"/>
      <point x="314" y="-112" type="qcurve"/>
      <point x="931" y="244" type="line"/>
      <point x="939" y="249"/>
      <point x="949" y="266"/>
      <point x="950" y="286"/>
      <point x="940" y="303"/>
      <point x="932" y="308" type="qcurve"/>
      <point x="457" y="583" type="line"/>
    </contour>
    <contour>
      <point x="416" y="405" type="line"/>
      <point x="416" y="654" type="line"/>
      <point x="838" y="410" type="line"/>
      <point x="932" y="464" type="line"/>
      <point x="940" y="469"/>
      <point x="944" y="477" type="qcurve"/>
      <point x="952" y="491"/>
      <point x="944" y="521"/>
      <point x="931" y="528" type="qcurve"/>
      <point x="314" y="885" type="line"/>
      <point x="306" y="890"/>
      <point x="286" y="890"/>
      <point x="269" y="880"/>
      <point x="259" y="863"/>
      <point x="258" y="854" type="qcurve"/>
      <point x="258" y="315" type="line"/>
    </contour>
  </outline>
</glyph>
<glyph name="xingzhuang" format="2">
  <advance width="1024"/>
  <unicode hex="E64D"/>
  <outline>
    <contour>
      <point x="512" y="-128" type="qcurve"/>
      <point x="408" y="-128"/>
      <point x="313" y="-88" type="qcurve"/>
      <point x="221" y="-49"/>
      <point x="79" y="93"/>
      <point x="40" y="185" type="qcurve"/>
      <point x="0" y="280"/>
      <point x="0" y="488"/>
      <point x="40" y="583" type="qcurve"/>
      <point x="79" y="675"/>
      <point x="221" y="817"/>
      <point x="313" y="856" type="qcurve"/>
      <point x="408" y="896"/>
      <point x="616" y="896"/>
      <point x="711" y="856" type="qcurve"/>
      <point x="803" y="817"/>
      <point x="945" y="675"/>
      <point x="984" y="583" type="qcurve"/>
      <point x="1024" y="488"/>
      <point x="1024" y="280"/>
      <point x="984" y="185" type="qcurve"/>
      <point x="945" y="93"/>
      <point x="803" y="-49"/>
      <point x="711" y="-88" type="qcurve"/>
      <point x="616" y="-128"/>
    </contour>
    <contour>
      <point x="295" y="312" type="line"/>
      <point x="434" y="173" type="line"/>
      <point x="741" y="480" type="line"/>
      <point x="602" y="619" type="line"/>
    </contour>
    <contour>
      <point x="223" y="101" type="line"/>
      <point x="416" y="156" type="line"/>
      <point x="278" y="294" type="line"/>
    </contour>
    <contour>
      <point x="797" y="588" type="qcurve"/>
      <point x="710" y="675" type="line"/>
      <point x="699" y="686"/>
      <point x="668" y="685"/>
      <point x="656" y="673" type="qcurve"/>
      <point x="614" y="631" type="line"/>
      <point x="753" y="492" type="line"/>
      <point x="795" y="534" type="line"/>
      <point x="807" y="546"/>
      <point x="808" y="577"/>
    </contour>
  </outline>
</glyph>
<glyph name="xingzhuang2" format="2">
  <advance width="1024"/>
  <unicode hex="E64E"/>
  <outline>
    <contour>
      <point x="512" y="-128" type="qcurve"/>
      <point x="408" y="-128"/>
      <point x="313" y="-88" type="qcurve"/>
      <point x="221" y="-49"/>
      <point x="79" y="93"/>
      <point x="40" y="185" type="qcurve"/>
      <point x="0" y="280"/>
      <point x="0" y="488"/>
      <point x="40" y="583" type="qcurve"/>
      <point x="79" y="675"/>
      <point x="221" y="817"/>
      <point x="313" y="856" type="qcurve"/>
      <point x="408" y="896"/>
      <point x="616" y="896"/>
      <point x="711" y="856" type="qcurve"/>
      <point x="803" y="817"/>
      <point x="945" y="675"/>
      <point x="984" y="583" type="qcurve"/>
      <point x="1024" y="488"/>
      <point x="1024" y="280"/>
      <point x="984" y="185" type="qcurve"/>
      <point x="945" y="93"/>
      <point x="803" y="-49"/>
      <point x="711" y="-88" type="qcurve"/>
      <point x="616" y="-128"/>
    </contour>
    <contour>
      <point x="322" y="497" type="line"/>
      <point x="322" y="572" type="line"/>
      <point x="714" y="572" type="line"/>
      <point x="714" y="497" type="line"/>
      <point x="776" y="497" type="line"/>
      <point x="776" y="626" type="line"/>
      <point x="676" y="626" type="line"/>
      <point x="689" y="646"/>
      <point x="699" y="668" type="qcurve"/>
      <point x="638" y="690" type="line"/>
      <point x="626" y="659"/>
      <point x="607" y="626" type="qcurve"/>
      <point x="551" y="626" type="line"/>
      <point x="551" y="692" type="line"/>
      <point x="485" y="692" type="line"/>
      <point x="485" y="626" type="line"/>
      <point x="431" y="626" type="line"/>
      <point x="416" y="660"/>
      <point x="396" y="688" type="qcurve"/>
      <point x="336" y="666" type="line"/>
      <point x="351" y="650"/>
      <point x="364" y="626" type="qcurve"/>
      <point x="260" y="626" type="line"/>
      <point x="260" y="497" type="line"/>
    </contour>
    <contour>
      <point x="678" y="424" type="line"/>
      <point x="678" y="545" type="line"/>
      <point x="358" y="545" type="line"/>
      <point x="358" y="424" type="line"/>
    </contour>
    <contour>
      <point x="616" y="467" type="line"/>
      <point x="420" y="467" type="line"/>
      <point x="420" y="501" type="line"/>
      <point x="616" y="501" type="line"/>
    </contour>
    <contour>
      <point x="385" y="225" type="line"/>
      <point x="385" y="345" type="line"/>
      <point x="652" y="345" type="line"/>
      <point x="652" y="232" type="line"/>
      <point x="714" y="232" type="line"/>
      <point x="714" y="401" type="line"/>
      <point x="323" y="401" type="line"/>
      <point x="323" y="225" type="line"/>
    </contour>
    <contour>
      <point x="286" y="132" type="line"/>
      <point x="455" y="145"/>
      <point x="499" y="188" type="qcurve"/>
      <point x="540" y="221"/>
      <point x="552" y="324" type="qcurve"/>
      <point x="489" y="329" type="line"/>
      <point x="483" y="256"/>
      <point x="444" y="226" type="qcurve"/>
      <point x="400" y="194"/>
      <point x="261" y="189" type="qcurve"/>
    </contour>
    <contour>
      <point x="739" y="129" type="qcurve"/>
      <point x="775" y="184" type="line"/>
      <point x="682" y="217"/>
      <point x="558" y="241" type="qcurve"/>
      <point x="527" y="194" type="line"/>
      <point x="640" y="169"/>
    </contour>
  </outline>
</glyph>
<glyph name="xingzhuangjiehe" format="2">
  <advance width="1024"/>
  <unicode hex="E64F"/>
  <outline>
    <contour>
      <point x="806" y="896" type="line"/>
      <point x="865" y="896"/>
      <point x="965" y="837"/>
      <point x="1024" y="737"/>
      <point x="1024" y="678" type="qcurve"/>
      <point x="1024" y="90" type="line"/>
      <point x="1024" y="31"/>
      <point x="965" y="-69"/>
      <point x="865" y="-128"/>
      <point x="806" y="-128" type="qcurve"/>
      <point x="218" y="-128" type="line"/>
      <point x="159" y="-128"/>
      <point x="59" y="-69"/>
      <point x="0" y="31"/>
      <point x="0" y="90" type="qcurve"/>
      <point x="0" y="678" type="line"/>
      <point x="0" y="737"/>
      <point x="59" y="837"/>
      <point x="159" y="896"/>
      <point x="218" y="896" type="qcurve"/>
    </contour>
    <contour>
      <point x="519" y="758" type="qcurve"/>
      <point x="440" y="758"/>
      <point x="302" y="683"/>
      <point x="261" y="616" type="qcurve"/>
      <point x="217" y="547"/>
      <point x="214" y="461" type="qcurve"/>
      <point x="157" y="437"/>
      <point x="90" y="334"/>
      <point x="90" y="272" type="qcurve"/>
      <point x="90" y="217"/>
      <point x="144" y="124"/>
      <point x="237" y="69"/>
      <point x="292" y="69" type="qcurve"/>
      <point x="292" y="68" type="line"/>
      <point x="693" y="68" type="line"/>
      <point x="700" y="69" type="line"/>
      <point x="751" y="69" type="line"/>
      <point x="805" y="70"/>
      <point x="895" y="126"/>
      <point x="947" y="218"/>
      <point x="947" y="328"/>
      <point x="891" y="424"/>
      <point x="842" y="451" type="qcurve"/>
      <point x="837" y="536"/>
      <point x="748" y="677"/>
      <point x="677" y="717" type="qcurve"/>
      <point x="603" y="758"/>
    </contour>
    <contour>
      <point x="519" y="668" type="qcurve"/>
      <point x="579" y="668"/>
      <point x="683" y="609"/>
      <point x="748" y="508"/>
      <point x="752" y="447" type="qcurve"/>
      <point x="741" y="428"/>
      <point x="757" y="387"/>
      <point x="778" y="381" type="qcurve"/>
      <point x="782" y="379" type="line"/>
      <point x="815" y="367"/>
      <point x="857" y="309"/>
      <point x="857" y="272" type="qcurve"/>
      <point x="857" y="242"/>
      <point x="827" y="190"/>
      <point x="775" y="159"/>
      <point x="745" y="159" type="qcurve"/>
      <point x="708" y="159" type="line"/>
      <point x="703" y="160" type="line"/>
      <point x="676" y="164"/>
      <point x="612" y="211"/>
      <point x="591" y="240" type="qcurve"/>
      <point x="541" y="306" type="line"/>
      <point x="493" y="365" type="line"/>
      <point x="450" y="418"/>
      <point x="406" y="444" type="qcurve"/>
      <point x="359" y="473"/>
      <point x="306" y="476" type="qcurve"/>
      <point x="312" y="532"/>
      <point x="344" y="577" type="qcurve"/>
      <point x="373" y="620"/>
      <point x="466" y="668"/>
    </contour>
    <contour>
      <point x="292" y="386" type="qcurve"/>
      <point x="327" y="386"/>
      <point x="390" y="348"/>
      <point x="424" y="307" type="qcurve"/>
      <point x="448" y="278" type="line"/>
      <point x="490" y="224" type="line"/>
      <point x="517" y="187" type="line"/>
      <point x="528" y="173"/>
      <point x="540" y="160" type="qcurve"/>
      <point x="292" y="160" type="line"/>
      <point x="292" y="159" type="line"/>
      <point x="262" y="159"/>
      <point x="210" y="190"/>
      <point x="180" y="242"/>
      <point x="180" y="303"/>
      <point x="210" y="355"/>
      <point x="262" y="386"/>
    </contour>
  </outline>
</glyph>
<glyph name="beta" format="2">
  <advance width="1024"/>
  <unicode hex="E650"/>
  <outline>
    <contour>
      <point x="511" y="395" type="qcurve"/>
      <point x="474" y="393"/>
      <point x="471" y="358" type="qcurve"/>
      <point x="550" y="358" type="line"/>
      <point x="548" y="393"/>
    </contour>
    <contour>
      <point x="771" y="310" type="qcurve"/>
      <point x="770" y="293"/>
      <point x="797" y="293" type="qcurve"/>
      <point x="842" y="296"/>
      <point x="846" y="336" type="qcurve"/>
      <point x="846" y="348" type="line"/>
      <point x="833" y="339"/>
      <point x="805" y="333" type="qcurve"/>
      <point x="771" y="327"/>
    </contour>
    <contour>
      <point x="328" y="391" type="qcurve"/>
      <point x="294" y="389"/>
      <point x="293" y="351" type="qcurve"/>
      <point x="293" y="336" type="line"/>
      <point x="294" y="298"/>
      <point x="327" y="296" type="qcurve"/>
      <point x="363" y="295"/>
      <point x="363" y="347" type="qcurve"/>
      <point x="362" y="389"/>
    </contour>
    <contour>
      <point x="897" y="591" type="qcurve"/>
      <point x="225" y="591" type="line"/>
      <point x="199" y="591"/>
      <point x="162" y="554"/>
      <point x="162" y="527" type="qcurve"/>
      <point x="162" y="300" type="line"/>
      <point x="78" y="224" type="line"/>
      <point x="78" y="223" type="line"/>
      <point x="65" y="215"/>
      <point x="65" y="202" type="qcurve"/>
      <point x="65" y="191"/>
      <point x="80" y="176"/>
      <point x="91" y="176" type="qcurve"/>
      <point x="897" y="176" type="line"/>
      <point x="923" y="176"/>
      <point x="960" y="214"/>
      <point x="960" y="240" type="qcurve"/>
      <point x="960" y="527" type="line"/>
      <point x="960" y="554"/>
      <point x="923" y="591"/>
    </contour>
    <contour>
      <point x="341" y="265" type="qcurve"/>
      <point x="309" y="265"/>
      <point x="294" y="289" type="qcurve"/>
      <point x="294" y="269" type="line"/>
      <point x="250" y="269" type="line"/>
      <point x="250" y="494" type="line"/>
      <point x="294" y="494" type="line"/>
      <point x="294" y="398" type="line"/>
      <point x="309" y="424"/>
      <point x="345" y="424" type="qcurve"/>
      <point x="406" y="421"/>
      <point x="408" y="348" type="qcurve"/>
      <point x="408" y="265"/>
    </contour>
    <contour>
      <point x="513" y="265" type="qcurve"/>
      <point x="431" y="268"/>
      <point x="428" y="342" type="qcurve"/>
      <point x="431" y="421"/>
      <point x="509" y="424" type="qcurve"/>
      <point x="592" y="424"/>
      <point x="592" y="342" type="qcurve"/>
      <point x="592" y="331" type="line"/>
      <point x="472" y="331" type="line"/>
      <point x="474" y="296"/>
      <point x="513" y="294" type="qcurve"/>
      <point x="541" y="294"/>
      <point x="549" y="315" type="qcurve"/>
      <point x="595" y="310" type="line"/>
      <point x="577" y="265"/>
    </contour>
    <contour>
      <point x="679" y="265" type="qcurve"/>
      <point x="632" y="264"/>
      <point x="633" y="311" type="qcurve"/>
      <point x="633" y="389" type="line"/>
      <point x="607" y="389" type="line"/>
      <point x="607" y="421" type="line"/>
      <point x="633" y="421" type="line"/>
      <point x="633" y="473" type="line"/>
      <point x="675" y="482" type="line"/>
      <point x="675" y="421" type="line"/>
      <point x="712" y="421" type="line"/>
      <point x="712" y="389" type="line"/>
      <point x="675" y="389" type="line"/>
      <point x="675" y="320" type="line"/>
      <point x="675" y="296"/>
      <point x="694" y="296" type="qcurve"/>
      <point x="702" y="296"/>
      <point x="708" y="301" type="qcurve"/>
      <point x="717" y="273" type="line"/>
      <point x="705" y="265"/>
    </contour>
    <contour>
      <point x="852" y="269" type="line"/>
      <point x="846" y="278"/>
      <point x="845" y="291" type="qcurve"/>
      <point x="824" y="266"/>
      <point x="778" y="265" type="qcurve"/>
      <point x="732" y="268"/>
      <point x="729" y="308" type="qcurve"/>
      <point x="729" y="350"/>
      <point x="787" y="357" type="qcurve"/>
      <point x="832" y="366"/>
      <point x="843" y="372" type="qcurve"/>
      <point x="845" y="396"/>
      <point x="811" y="395" type="qcurve"/>
      <point x="783" y="395"/>
      <point x="775" y="373" type="qcurve"/>
      <point x="734" y="379" type="line"/>
      <point x="747" y="424"/>
      <point x="810" y="424" type="qcurve"/>
      <point x="889" y="427"/>
      <point x="886" y="360" type="qcurve"/>
      <point x="886" y="300" type="line"/>
      <point x="886" y="281"/>
      <point x="894" y="269" type="qcurve"/>
    </contour>
  </outline>
</glyph>
